<svg xmlns="http://www.w3.org/2000/svg" width="32" height="32"  ><path fill="currentColor" d="M22 27a1 1 0 0 1-1 1H3a1 1 0 1 1 0-2h18a1 1 0 0 1 1 1m8.982-15.356a1 1 0 0 1-.47.674l-18.426 11a4.972 4.972 0 0 1-5.943-.669l-.015-.015-4.503-4.409a2 2 0 0 1 .561-3.276l.375-.184a1 1 0 0 1 .76-.05l3.532 1.193 2.522-1.525-2.729-2.649a2 2 0 0 1 .566-3.309l.04-.016.894-.339a1 1 0 0 1 .699 0l6.742 2.478L22.034 6.7a4.98 4.98 0 0 1 6.41 1.14l.015.019 2.33 2.986a1 1 0 0 1 .193.799m-2.467-.463L26.89 9.099a2.985 2.985 0 0 0-3.835-.678l-6.85 4.09a1 1 0 0 1-.859.08L8.5 10.073l-.5.191.026.025 3.67 3.561a1 1 0 0 1-.179 1.573l-4.026 2.436a1 1 0 0 1-.838.091L3.07 16.741l-.024.013-.046.021.016.015 4.5 4.408a2.98 2.98 0 0 0 3.553.397z"/></svg>