<svg xmlns="http://www.w3.org/2000/svg" width="32" height="32"  ><path fill="currentColor" d="M31 21v4a1 1 0 0 1-2 0v-1.586l-.277.277c-.387.422-5.044 5.31-12.724 5.31-7.855 0-12.547-5.115-12.743-5.332a1.003 1.003 0 1 1 1.493-1.338c.034.044 4.313 4.67 11.25 4.67s11.217-4.626 11.26-4.67l.033-.038.294-.293h-1.587a1 1 0 0 1 0-2h4a1 1 0 0 1 1 1m-11-9.184V10.5a4.5 4.5 0 0 0-8.51-2.045 1 1 0 1 1-1.782-.91A6.5 6.5 0 0 1 22 10.5V22a1 1 0 0 1-2 0v-.816a6.5 6.5 0 1 1 0-9.368m0 4.684a4.5 4.5 0 1 0-9 0 4.5 4.5 0 0 0 9 0"/></svg>