<svg xmlns="http://www.w3.org/2000/svg" width="32" height="32"  ><path fill="currentColor" d="M25.193 6.808A13 13 0 1 0 6.807 25.193 13 13 0 0 0 25.193 6.808m-1.414 1.415q.77.774 1.375 1.685l-4.21 4.967-3.49-9.777a10.9 10.9 0 0 1 6.325 3.125m-4.33 8.402-2.27 2.671-3.449-.625-1.179-3.296 2.27-2.671 3.449.625zM8.22 8.223a10.92 10.92 0 0 1 7.083-3.2l2.188 6.126L7.288 9.29q.432-.563.933-1.067m-2.39 11.97a11.05 11.05 0 0 1 .317-9.078l6.4 1.169zm2.39 3.585a11 11 0 0 1-1.375-1.685l4.21-4.968 3.49 9.773a10.92 10.92 0 0 1-6.325-3.12m15.558 0a10.92 10.92 0 0 1-7.083 3.198l-2.189-6.125 10.205 1.864q-.433.561-.933 1.063m-4.328-4.062 6.718-7.908a11.05 11.05 0 0 1-.317 9.077z"/></svg>