<svg xmlns="http://www.w3.org/2000/svg" width="32" height="32"  ><path fill="currentColor" d="M11.293 7.707a1 1 0 0 1 0-1.415l4-4a1 1 0 0 1 1.415 0l4 4a1 1 0 0 1-1.415 1.415l-2.292-2.293V12a1 1 0 0 1-2 0V5.414l-2.293 2.293a1 1 0 0 1-1.415 0m8 16.585-2.292 2.294V20a1 1 0 0 0-2 0v6.586l-2.293-2.294a1 1 0 0 0-1.415 1.415l4 4a1 1 0 0 0 1.415 0l4-4a1 1 0 0 0-1.415-1.415m10.415-9-4-4a1 1 0 0 0-1.415 1.415L26.587 15h-6.586a1 1 0 0 0 0 2h6.586l-2.294 2.292a1 1 0 1 0 1.415 1.415l4-4a1 1 0 0 0 0-1.415M5.415 17H12a1 1 0 1 0 0-2H5.415l2.293-2.293a1 1 0 1 0-1.415-1.415l-4 4a1 1 0 0 0 0 1.415l4 4a1 1 0 1 0 1.415-1.415z"/></svg>