<svg xmlns="http://www.w3.org/2000/svg" width="32" height="32"  ><path fill="currentColor" d="M27 6v6a1 1 0 0 1-2 0V8.414l-5.292 5.294a1 1 0 1 1-1.415-1.415L23.586 7H20a1 1 0 1 1 0-2h6a1 1 0 0 1 1 1M12.293 18.293 7 23.586V20a1 1 0 1 0-2 0v6a1 1 0 0 0 1 1h6a1 1 0 0 0 0-2H8.414l5.294-5.292a1 1 0 1 0-1.415-1.415M26 19a1 1 0 0 0-1 1v3.586l-5.292-5.293a1 1 0 1 0-1.415 1.415L23.586 25H20a1 1 0 0 0 0 2h6a1 1 0 0 0 1-1v-6a1 1 0 0 0-1-1M8.414 7H12a1 1 0 1 0 0-2H6a1 1 0 0 0-1 1v6a1 1 0 1 0 2 0V8.414l5.293 5.294a1 1 0 1 0 1.415-1.415z"/></svg>