<svg xmlns="http://www.w3.org/2000/svg" width="32" height="32"  ><path fill="currentColor" d="M25 10v18a1 1 0 0 1-2 0V11H8.413l4.294 4.293a1 1 0 0 1-1.415 1.415l-6-6-.007-.01-.06-.064-.028-.039-.029-.04-.028-.046-.022-.038-.023-.047-.02-.041q-.007-.024-.017-.047l-.016-.045-.011-.048c0-.017-.009-.032-.013-.047-.003-.015 0-.038-.007-.057-.008-.019 0-.026-.006-.04a1 1 0 0 1 0-.198q-.002-.02.006-.04c.006-.013 0-.038.007-.057.008-.019.008-.03.013-.046l.011-.05.016-.044q.01-.023.018-.046l.019-.042a1 1 0 0 1 .045-.085l.028-.046.03-.04.028-.039.059-.065.007-.008 6-6a1 1 0 1 1 1.415 1.415L8.413 9H24a1 1 0 0 1 1 1"/></svg>