<svg xmlns="http://www.w3.org/2000/svg" width="32" height="32"  ><path fill="currentColor" d="M18 13V8a1 1 0 1 1 2 0v2.586l5.293-5.293a1 1 0 1 1 1.415 1.415L21.414 12h2.587a1 1 0 1 1 0 2h-5a1 1 0 0 1-1-1m-5 5H8a1 1 0 1 0 0 2h2.587l-5.294 5.293a1 1 0 1 0 1.415 1.415l5.293-5.294V24a1 1 0 1 0 2 0v-5a1 1 0 0 0-1-1m8.414 2h2.587a1 1 0 0 0 0-2h-5a1 1 0 0 0-1 1v5a1 1 0 1 0 2 0v-2.586l5.292 5.294a1 1 0 0 0 1.415-1.415zM13.001 7a1 1 0 0 0-1 1v2.586L6.708 5.293a1 1 0 1 0-1.415 1.415L10.587 12H8a1 1 0 1 0 0 2h5a1 1 0 0 0 1-1V8a1 1 0 0 0-1-1"/></svg>