<svg xmlns="http://www.w3.org/2000/svg" width="32" height="32"  ><path fill="currentColor" d="M24.515 16c3.081-4.326 4.653-8.798 2.468-10.983C24.797 2.832 20.326 4.404 16 7.485 11.674 4.404 7.203 2.832 5.018 5.017S4.404 11.674 7.485 16c-3.081 4.326-4.652 8.797-2.468 10.982.704.704 1.644 1.018 2.74 1.018 2.31 0 5.31-1.396 8.25-3.485C18.933 26.604 21.933 28 24.25 28c1.095 0 2.036-.315 2.739-1.018 2.178-2.185.607-6.656-2.474-10.982m1.054-9.569c.955.955.31 4.05-2.315 7.91a38 38 0 0 0-2.649-2.946 38 38 0 0 0-2.946-2.645c3.86-2.625 6.955-3.275 7.91-2.319M22.036 16a36 36 0 0 1-2.845 3.191A36 36 0 0 1 16 22.036a36 36 0 0 1-3.191-2.845A36 36 0 0 1 9.964 16 37.3 37.3 0 0 1 16 9.964a36 36 0 0 1 3.191 2.845 36 36 0 0 1 2.845 3.19M6.431 6.43c.275-.276.729-.419 1.328-.419 1.477 0 3.836.863 6.581 2.738a38 38 0 0 0-2.945 2.645A38 38 0 0 0 8.75 14.34c-2.625-3.86-3.274-6.955-2.319-7.91m0 19.138c-.955-.955-.306-4.05 2.319-7.91a38 38 0 0 0 2.649 2.946 38 38 0 0 0 2.942 2.645c-3.86 2.625-6.955 3.275-7.91 2.319m19.138 0c-.955.956-4.05.31-7.91-2.315a38 38 0 0 0 2.946-2.65 38 38 0 0 0 2.645-2.945c2.625 3.86 3.274 6.955 2.319 7.91m-8.069-9.57a1.5 1.5 0 1 1-3 0 1.5 1.5 0 0 1 3 0"/></svg>