<svg xmlns="http://www.w3.org/2000/svg" width="32" height="32"  ><path fill="currentColor" d="m23.072 16 3.464-3.465a4.999 4.999 0 1 0-7.07-7.07L16 8.929l-3.465-3.464a5 5 0 1 0-7.07 7.07L8.93 16l-3.464 3.465a5 5 0 1 0 7.07 7.07L16 23.07l3.465 3.464a4.998 4.998 0 0 0 8.596-3.517 5 5 0 0 0-1.526-3.553zm-2.196-9.125a3.005 3.005 0 1 1 4.25 4.25L21.66 14.59l-4.246-4.246zM20.24 16 16 20.242 11.759 16l4.243-4.243zM6.876 11.125a3.004 3.004 0 1 1 4.25-4.25l3.465 3.465-4.246 4.246zm4.25 14A3.007 3.007 0 0 1 5.996 23a3 3 0 0 1 .88-2.125l3.465-3.465 4.242 4.242zm14 0a3 3 0 0 1-4.25 0L17.41 21.66l4.242-4.243 3.473 3.458a3 3 0 0 1 0 4.25M14.5 16a1.5 1.5 0 1 1 3 0 1.5 1.5 0 0 1-3 0"/></svg>