<svg xmlns="http://www.w3.org/2000/svg" width="32" height="32"  ><path fill="currentColor" d="M17 15v7a1 1 0 1 1-2 0v-7a1 1 0 0 1 2 0m12.982-2.736-1.733 13.001A2 2 0 0 1 26.266 27H5.733a2 2 0 0 1-1.984-1.735l-1.733-13A2 2 0 0 1 3.999 10h4.547l6.703-7.659a1 1 0 0 1 1.5 0l6.704 7.66H28a2 2 0 0 1 1.982 2.263M11.203 10h9.593L15.999 4.52zM28 12H4l1.734 13h20.533zm-6.395 2.9-.7 7A1 1 0 0 0 21.8 23a1 1 0 0 0 .102 0 1 1 0 0 0 .993-.9l.7-7a1 1 0 1 0-1.99-.2m-11.21 0a1 1 0 0 0-1.99.2l.7 7a1 1 0 0 0 1 .9 1 1 0 0 0 .102 0 1 1 0 0 0 .895-1.095z"/></svg>