<svg xmlns="http://www.w3.org/2000/svg" width="32" height="32"  ><path fill="currentColor" d="m30.707 5.293-4-4a1 1 0 1 0-1.415 1.415l.185.183-6.896 5.173-4.777.956a1 1 0 0 0-.512.273L2.875 19.708a3 3 0 0 0 0 4.242l5.175 5.175a3 3 0 0 0 4.242 0l10.415-10.414a1 1 0 0 0 .273-.51l.956-4.778 5.172-6.897.184.185a1 1 0 1 0 1.415-1.415zM12 13.413 18.586 20 13 25.586 6.413 19zM10.17 28a1 1 0 0 1-.706-.292l-5.173-5.173a1 1 0 0 1 0-1.414L5 20.414 11.586 27l-.711.708a1 1 0 0 1-.704.292M22.2 12.4a1 1 0 0 0-.18.404l-.942 4.704L20 18.586 13.414 12l1.078-1.079 4.704-.94a1 1 0 0 0 .404-.18l7.306-5.48.774.773z"/></svg>