<svg xmlns="http://www.w3.org/2000/svg" width="32" height="32"  ><path fill="currentColor" d="M28 8.888a1 1 0 0 1-1.347-.428 11.77 11.77 0 0 0-4.182-4.614.999.999 0 0 1 .313-1.822 1 1 0 0 1 .754.13 13.93 13.93 0 0 1 4.89 5.386 1 1 0 0 1-.427 1.348M4.465 9a1 1 0 0 0 .888-.54c.954-1.886 2.4-3.48 4.182-4.614a1 1 0 1 0-1.067-1.692 13.93 13.93 0 0 0-4.89 5.386A1 1 0 0 0 4.464 9m23.263 12.993A2 2 0 0 1 26 25h-5.1a5 5 0 0 1-9.8 0H6a2 2 0 0 1-1.724-3.008C5.403 20.05 6 17.286 6 14a10 10 0 0 1 20 0c0 3.284.597 6.047 1.726 7.993M18.828 25h-5.655a3 3 0 0 0 5.655 0m7.173-2c-1.33-2.284-2-5.311-2-9a8 8 0 0 0-16 0c0 3.69-.673 6.718-2 9z"/></svg>