<svg xmlns="http://www.w3.org/2000/svg" width="32" height="32"  ><path fill="currentColor" d="M21 28a1 1 0 0 1-1 1h-8a1 1 0 0 1 0-2h8a1 1 0 0 1 1 1m-3-11h-2.126l2.963-4.445A1 1 0 0 0 17.999 11h-4a1 1 0 0 0 0 2h2.132l-2.963 4.445A1.001 1.001 0 0 0 13.999 19h4a1 1 0 0 0 0-2m9.73 7A1.98 1.98 0 0 1 26 25H6a2 2 0 0 1-1.726-3.008C4.968 20.798 6 17.419 6 13a10 10 0 1 1 20 0c0 4.416 1.033 7.797 1.727 8.993A1.99 1.99 0 0 1 27.729 24M26 23c-.967-1.659-2-5.494-2-10a8 8 0 0 0-16 0c0 4.508-1.036 8.343-2 10z"/></svg>