<svg xmlns="http://www.w3.org/2000/svg" width="32" height="32"  ><path fill="currentColor" d="M19 18a1 1 0 0 1-1 1h-4a1 1 0 0 1-.832-1.555L16.131 13h-2.132a1 1 0 0 1 0-2h4a1 1 0 0 1 .832 1.555L15.874 17H18a1 1 0 0 1 1 1m8.73 6A1.98 1.98 0 0 1 26 25h-5.102a5 5 0 0 1-9.797 0H5.999a2 2 0 0 1-1.725-3.008C4.968 20.798 6 17.419 6 13a10 10 0 1 1 20 0c0 4.416 1.033 7.797 1.727 8.993A1.99 1.99 0 0 1 27.729 24m-8.903 1h-5.655a3 3 0 0 0 5.655 0m7.172-2c-.966-1.659-2-5.494-2-10a8 8 0 0 0-16 0c0 4.508-1.035 8.343-2 10z"/></svg>