<svg xmlns="http://www.w3.org/2000/svg" width="32" height="32"  ><path fill="currentColor" d="M21 28a1 1 0 0 1-1 1h-8a1 1 0 1 1 0-2h8a1 1 0 0 1 1 1m7.424-20.46a13.9 13.9 0 0 0-4.89-5.385 1 1 0 1 0-1.067 1.691 11.77 11.77 0 0 1 4.182 4.614 1 1 0 0 0 1.775-.92M4.464 9a1 1 0 0 0 .888-.54c.954-1.886 2.4-3.48 4.182-4.614a1 1 0 1 0-1.067-1.691 13.9 13.9 0 0 0-4.89 5.385A1 1 0 0 0 4.464 9m23.263 12.992A2 2 0 0 1 26 25H6a2 2 0 0 1-1.724-3.008C5.403 20.05 6 17.285 6 14a10 10 0 0 1 20 0c0 3.284.597 6.047 1.726 7.992M26 23c-1.33-2.284-2-5.311-2-9a8 8 0 0 0-16 0c0 3.69-.673 6.717-2 9z"/></svg>