<svg xmlns="http://www.w3.org/2000/svg" width="32" height="32"  ><path fill="currentColor" d="M22 8.5a1.5 1.5 0 1 1-2.998 0A1.5 1.5 0 0 1 22 8.5m-6.36 7.732a1 1 0 0 0-1.408.125l-5 6a1 1 0 1 0 1.537 1.28l5-6a1 1 0 0 0-.128-1.405M30 10a1 1 0 0 1-.444.833L27 12.535V15a13.014 13.014 0 0 1-13 13H1a1 1 0 0 1-.782-1.625L12.001 11.65V9.5a7.5 7.5 0 0 1 14.65-2.267l2.905 1.935A1 1 0 0 1 30 10m-2.802 0-1.96-1.307a1 1 0 0 1-.414-.58A5.5 5.5 0 0 0 14.001 9.5V12a1 1 0 0 1-.22.625L3.082 26H14a11.01 11.01 0 0 0 11-11v-3a1 1 0 0 1 .445-.832z"/></svg>