<svg xmlns="http://www.w3.org/2000/svg" width="32" height="32"  ><path fill="currentColor" d="M28.958 7.611a4.48 4.48 0 0 0-2.977-1.592 4.5 4.5 0 1 0-8.297 2.865v.01l-8.788 8.795h-.013a4.5 4.5 0 1 0-2.865 8.296 4.5 4.5 0 1 0 8.297-2.865v-.01l8.793-8.795h.013a4.5 4.5 0 0 0 5.842-6.704zm-1.571 4.534a2.5 2.5 0 0 1-3.209.475 2 2 0 0 0-2.485.274l-8.8 8.8a2 2 0 0 0-.269 2.485 2.5 2.5 0 1 1-4.593.937 1 1 0 0 0-1.143-1.142 2.499 2.499 0 1 1 .933-4.599 2 2 0 0 0 2.485-.274l8.8-8.8a2 2 0 0 0 .268-2.48 2.5 2.5 0 1 1 4.594-.937 1 1 0 0 0 1.143 1.142 2.5 2.5 0 0 1 2.271 4.125z"/></svg>