<svg xmlns="http://www.w3.org/2000/svg" width="32" height="32"  ><path fill="currentColor" d="M28 13h-1.046a11 11 0 0 0-21.908 0H4a1 1 0 0 0-1 1 13.04 13.04 0 0 0 7 11.535V26a2 2 0 0 0 2 2h8a2 2 0 0 0 2-2v-.465A13.04 13.04 0 0 0 29 14a1 1 0 0 0-1-1m-3.058 0h-6.427a8.98 8.98 0 0 1 5.159-3.696A8.9 8.9 0 0 1 24.942 13M21.685 7.03q.345.28.659.594a11 11 0 0 0-6.144 5.375h-3.687A9.03 9.03 0 0 1 21 7q.343.001.685.029M16 5c.802 0 1.601.109 2.375.321a11.05 11.05 0 0 0-7.959 7.68H7.057A9.01 9.01 0 0 1 16 5m4.583 19a1 1 0 0 0-.583.913V26h-8v-1.087a1 1 0 0 0-.582-.913 11.04 11.04 0 0 1-6.375-9h21.91a11.04 11.04 0 0 1-6.37 9"/></svg>