<svg xmlns="http://www.w3.org/2000/svg" width="32" height="32"  ><path fill="currentColor" d="M16 11A4.999 4.999 0 1 0 16 21 4.999 4.999 0 0 0 16 11m0 8a3 3 0 1 1 0-5.999 3 3 0 0 1 0 6m9.214.893a10 10 0 0 1-1.76 2.775 1 1 0 0 1-1.49-1.334 7.994 7.994 0 0 0 0-10.666.999.999 0 1 1 1.49-1.334 10.01 10.01 0 0 1 1.76 10.559M8.625 12.887a8 8 0 0 0 1.408 8.447 1 1 0 0 1-1.49 1.334 9.99 9.99 0 0 1 0-13.334 1.001 1.001 0 0 1 1.494 1.334 8 8 0 0 0-1.412 2.219M31 16a14.95 14.95 0 0 1-4.286 10.5 1 1 0 1 1-1.427-1.4 12.99 12.99 0 0 0 0-18.194A1.001 1.001 0 1 1 26.714 5.5 14.95 14.95 0 0 1 31 16M6.714 25.099A1 1 0 1 1 5.287 26.5a14.984 14.984 0 0 1 0-21 1 1 0 1 1 1.427 1.4 12.99 12.99 0 0 0 0 18.196z"/></svg>