<svg xmlns="http://www.w3.org/2000/svg" width="32" height="32"  ><path fill="currentColor" d="M29.438 27.101C26.618 25.726 25 22.78 25 19.001v-2.16a1.99 1.99 0 0 0-1.261-1.859l-3.114-1.232a1 1 0 0 1-.56-1.293l2.665-6.625a3.5 3.5 0 0 0-2.012-4.625 3.517 3.517 0 0 0-4.478 2v.015l-2.627 6.653a1 1 0 0 1-1.297.561L9.14 9.142a1.99 1.99 0 0 0-2.171.458C4.335 12.306 3 15.469 3 19a13.93 13.93 0 0 0 3.898 9.691 1 1 0 0 0 .727.309H29a1 1 0 0 0 .438-1.899M8.392 11l3.176 1.287a3 3 0 0 0 3.903-1.68l2.626-6.626c.32-.764 1.183-1.159 1.928-.875a1.5 1.5 0 0 1 .86 1.99l-2.675 6.624a3 3 0 0 0 1.679 3.892l3.11 1.23v2.283L6.971 12.714q.64-.916 1.422-1.714m6 16a10.94 10.94 0 0 1-3.043-5.25 1 1 0 0 0-1.936.5A13.15 13.15 0 0 0 11.709 27H8.055A11.94 11.94 0 0 1 5 19a10.7 10.7 0 0 1 .966-4.536l17.225 6.89c.375 2.25 1.32 4.185 2.736 5.645z"/></svg>