<svg xmlns="http://www.w3.org/2000/svg" width="32" height="32"  ><path fill="currentColor" d="M29.088 6.31C28.624 5.713 27.73 5 26.124 5c-2.106 0-4.808 1.41-7.226 3.77A17.5 17.5 0 0 0 17 10.941V7a1 1 0 0 0-2 0v3.941c-.57-.774-1.204-1.5-1.894-2.171C10.686 6.41 7.985 5 5.875 5c-1.605 0-2.5.713-2.963 1.31-.852 1.096-1.522 3.01-.026 8.9.756 2.979 2.439 4.125 3.829 4.552A5.5 5.5 0 0 0 16 25.66a5.5 5.5 0 0 0 9.285-5.896c1.39-.426 3.071-1.574 3.829-4.553.84-3.305 1.492-6.948-.027-8.9M11.5 26a3.515 3.515 0 0 1-.393-7 1 1 0 1 0-.22-1.988c-.934.1-1.827.44-2.592.988-1.054.011-2.75-.446-3.47-3.283-.36-1.418-1.45-5.735-.333-7.18.18-.23.52-.537 1.383-.537C9.284 7 15 12.61 15 15.959V22.5a3.5 3.5 0 0 1-3.5 3.5m15.675-11.282c-.721 2.836-2.416 3.292-3.471 3.282a5.45 5.45 0 0 0-2.593-.994 1 1 0 0 0-1.003.506 1 1 0 0 0 .783 1.482A3.514 3.514 0 1 1 17 22.5v-6.541C17 12.61 22.711 7 26.125 7c.869 0 1.207.308 1.387.537 1.12 1.446.023 5.762-.337 7.18"/></svg>