<svg xmlns="http://www.w3.org/2000/svg" width="32" height="32"  ><path fill="currentColor" d="M29 8h-3.587l3.294-3.293a1.001 1.001 0 0 0-1.415-1.414l-3.293 3.293V3a1 1 0 0 0-2 0v4.071a8 8 0 0 0-9.65 1.265C7.338 13.26 3.57 24.971 3.202 26.143A2 2 0 0 0 5.858 28.8c1.172-.367 12.898-4.141 17.809-9.151A8 8 0 0 0 24.928 10H29a1 1 0 1 0 0-2m-6.765 10.25c-1.118 1.14-2.657 2.225-4.357 3.216l-3.172-3.174a1.002 1.002 0 0 0-1.632.325 1 1 0 0 0 .217 1.09l2.761 2.762c-5.109 2.648-10.79 4.427-10.875 4.453A1 1 0 0 0 5 27a1 1 0 0 0 .073-.176c.036-.117 3.5-11.198 8-16.334l4.221 4.221a1 1 0 0 0 1.415-1.415L14.522 9.11a6 6 0 0 1 7.713 9.14"/></svg>