<svg xmlns="http://www.w3.org/2000/svg" width="32" height="32"  ><path fill="currentColor" d="M12.5 14.554a1 1 0 0 0 .5-.867v-9a1 1 0 0 0-1.333-.937 13.01 13.01 0 0 0-8.45 14.625 1 1 0 0 0 1.483.685zM11 6.202v6.908l-5.985 3.454C5 16.375 5 16.185 5 16a11.02 11.02 0 0 1 6-9.797m16.292 3.363q-.015-.034-.036-.069-.02-.032-.039-.061A13 13 0 0 0 16 3a1 1 0 0 0-1 1v11.479l-9.851 5.737a1 1 0 0 0-.36 1.375A13 13 0 0 0 29 16a12.9 12.9 0 0 0-1.707-6.435M17 5.045a11 11 0 0 1 7.986 4.618L17 14.313zM16 27a11.06 11.06 0 0 1-8.936-4.585l9.425-5.489.027-.017 9.471-5.516A11 11 0 0 1 16 27"/></svg>