<svg xmlns="http://www.w3.org/2000/svg" width="32" height="32"  ><path fill="currentColor" d="M28.974 23.416a10 10 0 0 0-7.778-14.343 10 10 0 1 0-18.17 8.343l-.957 3.352a1.75 1.75 0 0 0 2.162 2.163l3.353-.958c1.011.497 2.1.82 3.218.954a10 10 0 0 0 13.614 5.046l3.353.958a1.75 1.75 0 0 0 2.162-2.163zM7.69 19.903q-.14 0-.275.038l-3.301.944.944-3.302a1 1 0 0 0-.085-.75A7.994 7.994 0 1 1 8.17 20.03a1 1 0 0 0-.479-.127m19.25 3.68.944 3.302-3.301-.944a1 1 0 0 0-.75.085 8.007 8.007 0 0 1-10.79-3.08 9.99 9.99 0 0 0 8.793-11.733 8 8 0 0 1 5.19 11.617 1 1 0 0 0-.086.753"/></svg>