<svg xmlns="http://www.w3.org/2000/svg" width="32" height="32"  ><path fill="currentColor" d="M12.032 4.631a1 1 0 0 1 .718-1.22c2.132-.55 4.368-.55 6.5 0a1 1 0 1 1-.5 1.937 11 11 0 0 0-5.5 0 1 1 0 0 1-1.218-.717M6.724 6.893a13 13 0 0 0-3.25 5.625 1 1 0 0 0 1.927.533 11 11 0 0 1 2.75-4.76 1 1 0 0 0-1.427-1.398M5.4 18.943a1 1 0 1 0-1.927.536 13 13 0 0 0 3.25 5.625A1 1 0 0 0 8.15 23.7 11 11 0 0 1 5.4 18.944m13.349 7.71a11 11 0 0 1-5.5 0 1 1 0 1 0-.5 1.936c2.132.55 4.368.55 6.5 0a1 1 0 0 0-.5-1.936m9.081-8.403a1 1 0 0 0-1.231.698 11 11 0 0 1-2.75 4.76 1 1 0 0 0 1.427 1.4 13 13 0 0 0 3.25-5.624 1 1 0 0 0-.696-1.234M26.6 13.058a1 1 0 1 0 1.927-.535 13 13 0 0 0-3.25-5.625A1 1 0 1 0 23.85 8.3a11 11 0 0 1 2.749 4.756z"/></svg>