<svg xmlns="http://www.w3.org/2000/svg" width="32" height="32"  ><path fill="currentColor" d="M20.5 9q-.778 0-1.546.125a8.99 8.99 0 0 0-6.934-7.896 1 1 0 0 0-1.198 1.197 7.008 7.008 0 0 1-8.396 8.396 1 1 0 0 0-1.2 1.199 9.03 9.03 0 0 0 4.037 5.633A6.5 6.5 0 0 0 10.499 28h10a9.5 9.5 0 1 0 0-19M3.67 13H4a9.01 9.01 0 0 0 9-9v-.334a6.95 6.95 0 0 1 4 6 9.53 9.53 0 0 0-5.376 5.425 6.5 6.5 0 0 0-4.875 1.108 7.03 7.03 0 0 1-3.079-3.2M20.5 26h-10a4.5 4.5 0 1 1 .597-8.961 9 9 0 0 0-.097.903 1.002 1.002 0 1 0 2 .115c.028-.498.107-.993.235-1.476 0-.02.012-.04.015-.06A7.507 7.507 0 1 1 20.5 26"/></svg>