<svg xmlns="http://www.w3.org/2000/svg" width="32" height="32"  ><path fill="currentColor" d="M19.5 9c-.855 0-1.707.115-2.532.342a7 7 0 0 0-1.176-1.443l1.188-1.696a.999.999 0 0 0-.993-1.56 1 1 0 0 0-.645.412l-1.19 1.695A7 7 0 0 0 11 6h-.217l-.361-2.036a1 1 0 1 0-1.97.346l.36 2.043a7 7 0 0 0-2.908 1.856L4.202 7.018a1 1 0 1 0-1.147 1.639l1.695 1.19A6.94 6.94 0 0 0 4 13v.215l-2.036.36a1 1 0 1 0 .346 1.97l2.04-.36a7 7 0 0 0 .733 1.553A6.5 6.5 0 0 0 9.5 28h10a9.5 9.5 0 1 0 0-19M6 13a5 5 0 0 1 9.068-2.905 9.53 9.53 0 0 0-4.453 5 6.5 6.5 0 0 0-3.875.521A5 5 0 0 1 6 13m13.5 13h-10a4.5 4.5 0 1 1 .598-8.961 9 9 0 0 0-.096.904 1 1 0 0 0 1.901.493c.058-.118.091-.247.099-.378a7.4 7.4 0 0 1 .235-1.477c0-.02.01-.04.015-.06a7.507 7.507 0 1 1 7.248 9.48"/></svg>