<svg xmlns="http://www.w3.org/2000/svg" width="32" height="32"  ><path fill="currentColor" d="M13.935 6.579a1.975 1.975 0 0 0-3.25.721l-6.56 18.048A1.98 1.98 0 0 0 5.968 28a2 2 0 0 0 .683-.125l18.046-6.562a1.975 1.975 0 0 0 .722-3.25zm-1.04 16.901-4.376-4.375 1.645-4.526 7.256 7.256zm-6.876 2.5 1.75-4.801 3.056 3.056zm13.48-4.9-8.58-8.58 1.625-4.484 11.429 11.429zM20 9c.019-.676.183-1.34.48-1.947C21.142 5.729 22.392 5 24 5c.838 0 1.375-.286 1.706-.901A2.75 2.75 0 0 0 26 2.993 1 1 0 1 1 28 3c0 1.608-1.065 4-4 4-.837 0-1.375.286-1.706.901a2.75 2.75 0 0 0-.294 1.107A1 1 0 1 1 20 9m-3-4V2a1 1 0 0 1 2 0v3a1 1 0 1 1-2 0m12.708 10.293a1 1 0 1 1-1.415 1.413l-2-2a1 1 0 0 1 1.415-1.415zm.608-5.344-3 1a1 1 0 1 1-.632-1.898l3-1a1 1 0 0 1 .632 1.898"/></svg>