<svg xmlns="http://www.w3.org/2000/svg" width="32" height="32"  ><path fill="currentColor" d="M20.561 20.439a1.5 1.5 0 1 1-2.125 2.117 1.5 1.5 0 0 1 2.125-2.117m-10.125-1a1.5 1.5 0 1 0 .003 0zm1.125-4.875a1.5 1.5 0 1 0-.487.324c.183-.076.348-.187.487-.327zm6-.125a1.5 1.5 0 1 0-2.117 2.124 1.5 1.5 0 0 0 2.117-2.124M29 16A13 13 0 1 1 16 3a1 1 0 0 1 1 1 5 5 0 0 0 5 5 1 1 0 0 1 1 1 5 5 0 0 0 5 5 1 1 0 0 1 1 1m-2.039.924a7.02 7.02 0 0 1-5.898-5.986 7.02 7.02 0 0 1-5.987-5.9 11 11 0 1 0 11.885 11.886"/></svg>