<svg xmlns="http://www.w3.org/2000/svg" width="32" height="32"  ><path fill="currentColor" d="M30.481 9.523a1.51 1.51 0 0 0-1.668-.212l-6.276 3.125-5.24-8.704a1.514 1.514 0 0 0-2.592 0l-5.24 8.708L3.19 9.314a1.514 1.514 0 0 0-2.113 1.826l4.625 14.17a1 1 0 0 0 1.46.55c.032-.02 3.228-1.86 8.838-1.86s8.806 1.84 8.835 1.858a1 1 0 0 0 1.464-.549l4.625-14.166a1.51 1.51 0 0 0-.444-1.62m-5.73 14.08c-1.5-.636-4.49-1.604-8.75-1.604s-7.25.968-8.75 1.604L3.34 11.624l5.633 2.81a1.52 1.52 0 0 0 1.973-.574l5.055-8.403 5.055 8.4a1.52 1.52 0 0 0 1.971.574l5.635-2.806zm-2.766-4a1 1 0 0 1-1.159.811 28.5 28.5 0 0 0-9.652 0 1 1 0 1 1-.348-1.97 30.6 30.6 0 0 1 10.348 0 1 1 0 0 1 .812 1.156z"/></svg>