<svg xmlns="http://www.w3.org/2000/svg" width="32" height="32"  ><path fill="currentColor" d="M26.74 26.327a1 1 0 1 1-1.48 1.345l-4.375-4.806A3 3 0 0 1 17 20q-.001-.635.151-1.25l-5.15-5.668A1.001 1.001 0 0 1 10 13c-.001-.613.092-1.223.277-1.808L8.063 8.75A8.93 8.93 0 0 0 7 13c0 3.337 1.066 4.365 2.197 5.455C10.277 19.5 11.5 20.676 11.5 23.5A4.5 4.5 0 0 0 16 28c1.28 0 2.307-.52 3.229-1.637a1.001 1.001 0 1 1 1.543 1.273C19.477 29.205 17.875 30 16 30a6.51 6.51 0 0 1-6.5-6.5c0-1.974-.71-2.659-1.692-3.605C6.558 18.687 5 17.187 5 13a10.9 10.9 0 0 1 1.652-5.798L5.26 5.672a1 1 0 1 1 1.48-1.345zM11.387 5.271A9 9 0 0 1 25 13a1 1 0 1 0 2 0A11 11 0 0 0 10.36 3.555a1 1 0 1 0 1.027 1.716m8.653 10.625a1 1 0 0 0 1.348-.43C21.79 14.706 22 13.86 22 13a6 6 0 0 0-7.946-5.678 1 1 0 1 0 .649 1.893A4 4 0 0 1 20 13a3.25 3.25 0 0 1-.39 1.542 1 1 0 0 0 .43 1.348z"/></svg>