<svg xmlns="http://www.w3.org/2000/svg" width="32" height="32"  ><path fill="currentColor" d="M21.828 10.171a10 10 0 1 0-11.657 11.657 10 10 0 1 0 11.657-11.657M28 20c0 .19-.008.375-.022.564l-6.25-6.25a10 10 0 0 0 .272-2.064A8.014 8.014 0 0 1 28 20M26.316 24.9l-6.578-6.576c.486-.594.902-1.242 1.241-1.93l6.483 6.48a8 8 0 0 1-1.146 2.026m-3.442 2.561-6.482-6.482a10 10 0 0 0 1.93-1.242l6.576 6.578a8 8 0 0 1-2.024 1.146M5.684 7.1l6.577 6.576a10 10 0 0 0-1.242 1.93l-6.482-6.48a8 8 0 0 1 1.146-2.026m3.44-2.562 6.483 6.483a10 10 0 0 0-1.93 1.241L7.098 5.684a8 8 0 0 1 2.026-1.147M20 12a8.01 8.01 0 0 1-8 8 8.01 8.01 0 0 1 8-8m-.25-2a10 10 0 0 0-2.06.266l-6.25-6.25c.185-.007.37-.016.56-.016a8.014 8.014 0 0 1 7.75 6.006zM4 12c0-.19.009-.375.023-.564l6.25 6.25a10 10 0 0 0-.266 2.064A8.014 8.014 0 0 1 3.999 12m8.25 10a10 10 0 0 0 2.062-.267l6.25 6.25a8 8 0 0 1-.564.023A8.01 8.01 0 0 1 12.249 22"/></svg>