<svg xmlns="http://www.w3.org/2000/svg" width="32" height="32"  ><path fill="currentColor" d="M28 8.413a4.47 4.47 0 0 0-1.407-3.208c-1.75-1.66-4.59-1.597-6.328.141L17.85 7.775a3 3 0 0 0-4.142.096l-1.125 1.125a2 2 0 0 0 0 2.83l.25.258-6.375 6.375a4.97 4.97 0 0 0-1.316 4.75l-1 2.301a1.71 1.71 0 0 0 .358 1.903 1.99 1.99 0 0 0 2.214.418l2.19-.956a4.99 4.99 0 0 0 4.633-1.344l6.374-6.375.258.258a2 2 0 0 0 2.828 0l1.125-1.125a3 3 0 0 0 .092-4.148l2.469-2.483A4.47 4.47 0 0 0 28 8.413M12.125 24.125a3 3 0 0 1-3 .75 1 1 0 0 0-.694.039l-2.262.989.956-2.227a1 1 0 0 0 .032-.718 2.99 2.99 0 0 1 .718-3.083L14.25 13.5l4.243 4.25zM25.267 10.25l-3.172 3.19a1 1 0 0 0 0 1.413l.611.61a1 1 0 0 1 0 1.416l-1.125 1.125-7.58-7.596 1.124-1.125a1 1 0 0 1 1.414 0l.611.61a1 1 0 0 0 1.417 0l3.117-3.135c.976-.978 2.563-1.023 3.536-.102a2.5 2.5 0 0 1 .049 3.588z"/></svg>