<svg xmlns="http://www.w3.org/2000/svg" width="32" height="32"  ><path fill="currentColor" d="M28 8.413a4.47 4.47 0 0 0-1.407-3.208c-1.75-1.66-4.59-1.597-6.327.141L17.85 7.775a3 3 0 0 0-4.143.096l-1.125 1.125a2 2 0 0 0 0 2.83l.25.258-6.375 6.375a4.97 4.97 0 0 0-1.316 4.75l-1 2.301a1.71 1.71 0 0 0 .359 1.901 1.99 1.99 0 0 0 2.213.42l2.192-.956a4.99 4.99 0 0 0 4.63-1.344l6.376-6.375.257.258a2 2 0 0 0 2.828 0l1.125-1.125a3 3 0 0 0 .092-4.148l2.47-2.483A4.47 4.47 0 0 0 28 8.413M12.127 24.125a3 3 0 0 1-3 .75 1 1 0 0 0-.694.039l-2.263.987.957-2.225a1 1 0 0 0 .03-.718 3 3 0 0 1 .013-1.962h8.082zM17.25 19H8.759l5.5-5.5 4.243 4.25zm8.022-8.75-3.171 3.19a1 1 0 0 0 0 1.414l.611.61a1 1 0 0 1 0 1.415l-1.125 1.125-7.587-7.596 1.125-1.125a1 1 0 0 1 1.413 0l.612.61a1 1 0 0 0 1.413-.002l3.118-3.136c.976-.977 2.562-1.022 3.536-.101a2.5 2.5 0 0 1 .049 3.587z"/></svg>