<svg xmlns="http://www.w3.org/2000/svg" width="32" height="32"  ><path fill="currentColor" d="M29.124 16.875a7.5 7.5 0 0 0-11.202-4.431l2.049-8.18a1 1 0 0 0-.432-1.085 7.5 7.5 0 1 0-7.579 12.935L3.852 18.43a1 1 0 0 0-.725.915 7.5 7.5 0 0 0 5.552 7.583 7.6 7.6 0 0 0 1.953.258 7.51 7.51 0 0 0 7.485-7.75l6.06 5.866a1 1 0 0 0 1.156.168 7.5 7.5 0 0 0 3.791-8.595M14 16A2 2 0 1 1 18 16a2 2 0 0 1-4 0m-4-6.5a5.5 5.5 0 0 1 7.844-4.977L15.97 12a4 4 0 0 0-3.49 2.1A5.48 5.48 0 0 1 10 9.5m3.375 14.947a5.5 5.5 0 0 1-8.232-4.304l7.414-2.118A4 4 0 0 0 15.999 20h.114a5.48 5.48 0 0 1-2.739 4.447m13.271-2.875a5.5 5.5 0 0 1-1.625 1.767l-5.54-5.361a3.99 3.99 0 0 0-.073-4.072 5.5 5.5 0 0 1 7.238 7.666"/></svg>