<svg xmlns="http://www.w3.org/2000/svg" width="32" height="32"  ><path fill="currentColor" d="M10.977 24.539a2.6 2.6 0 0 1-1.149 1.903c-.649.433-1.454.558-2.186.558a7.7 7.7 0 0 1-1.893-.25 1 1 0 0 1 .538-1.926c.547.15 1.869.337 2.444-.045.11-.074.228-.19.267-.491.044-.334-.089-.513-1.597-.95-1.169-.337-3.125-.903-2.875-2.888a2.57 2.57 0 0 1 1.125-1.869c1.48-1 3.84-.413 4.103-.345a1 1 0 1 1-.508 1.935c-.56-.146-1.904-.32-2.479.07a.57.57 0 0 0-.25.459c-.014.113-.018.136.14.238.289.186.805.335 1.306.48 1.224.353 3.294.957 3.014 3.12M27 11v3a1 1 0 0 1-2 0v-2h-6a1 1 0 0 1-1-1V5H7v9a1 1 0 1 1-2 0V5a2 2 0 0 1 2-2h12a1 1 0 0 1 .706.293l7 7A1 1 0 0 1 27 11m-7-1h3.586L20 6.414zm-1.663 8.059a1 1 0 0 0-1.279.605L15.5 23.026l-1.558-4.362a1 1 0 1 0-1.883.672l2.5 7a1 1 0 0 0 1.884 0l2.5-7a1 1 0 0 0-.605-1.277M26 22h-1a1 1 0 0 0 0 2v.661A1.67 1.67 0 0 1 24 25c-1.103 0-2-1.125-2-2.5s.897-2.5 2-2.5c.336.001.664.105.94.297a1 1 0 0 0 1.12-1.657A3.67 3.67 0 0 0 24 18c-2.206 0-4 2.019-4 4.5s1.794 4.5 4 4.5a3.76 3.76 0 0 0 2.722-1.2 1 1 0 0 0 .277-.691V23a1 1 0 0 0-1-1"/></svg>