<svg xmlns="http://www.w3.org/2000/svg" width="32" height="32"  ><path fill="currentColor" d="M19.5 26a1 1 0 0 1-1 1H15a1 1 0 0 1-1-1v-7a1 1 0 0 1 2 0v6h2.5a1 1 0 0 1 1 1m-7.92-7.814a1 1 0 0 0-1.394.233L8.499 20.78l-1.686-2.361a1 1 0 1 0-1.625 1.162L7.271 22.5l-2.085 2.919A1 1 0 0 0 6.81 26.58l1.688-2.361 1.687 2.361a1 1 0 0 0 1.625-1.162L9.728 22.5l2.085-2.919a1 1 0 0 0-.232-1.395m12.368 3.228c-.5-.145-1.017-.294-1.306-.48-.156-.103-.154-.125-.14-.238a.57.57 0 0 1 .25-.459c.575-.39 1.917-.214 2.477-.07a1 1 0 0 0 .51-1.934c-.265-.07-2.626-.653-4.105.345a2.57 2.57 0 0 0-1.118 1.868c-.25 1.985 1.706 2.551 2.875 2.889 1.507.436 1.64.615 1.597.949-.039.301-.157.416-.269.491-.575.383-1.895.194-2.442.044a1.002 1.002 0 1 0-.536 1.931c.62.163 1.257.247 1.898.25.728 0 1.538-.125 2.187-.558a2.6 2.6 0 0 0 1.147-1.903c.276-2.164-1.789-2.768-3.025-3.125M5 14V5a2 2 0 0 1 2-2h12a1 1 0 0 1 .708.293l7 7a1 1 0 0 1 .292.707v3a1 1 0 1 1-2 0v-2h-6a1 1 0 0 1-1-1V5H7v9a1 1 0 1 1-2 0m15-4h3.585L20 6.414z"/></svg>