<svg xmlns="http://www.w3.org/2000/svg" width="32" height="32"  ><path fill="currentColor" d="M23 16a30.8 30.8 0 0 1-2.318 11.78 1 1 0 0 1-.925.625 1 1 0 0 1-.92-1.381A28.8 28.8 0 0 0 21 16a1 1 0 0 1 2 0m-7-5a5 5 0 0 1 3.726 1.666 1 1 0 1 0 1.49-1.334A7 7 0 0 0 9 16c0 2.88-.732 5.712-2.125 8.231a1 1 0 1 0 1.75.97A19 19 0 0 0 10.999 16a5 5 0 0 1 5-5m0-8a13 13 0 0 0-4.334.74 1 1 0 0 0 .667 1.885A11.006 11.006 0 0 1 27 16a35.2 35.2 0 0 1-.868 7.779A1 1 0 0 0 27.105 25a1 1 0 0 0 .974-.779c.611-2.698.92-5.455.92-8.221A13.013 13.013 0 0 0 16 3M8.667 7.803A1 1 0 1 0 7.333 6.31 13.02 13.02 0 0 0 3 16a10.9 10.9 0 0 1-1 4.583 1 1 0 1 0 1.817.835A12.9 12.9 0 0 0 5 16a11.02 11.02 0 0 1 3.667-8.197m5.573 17.29a1 1 0 0 0-1.327.49c-.24.526-.5 1.05-.786 1.556a1 1 0 1 0 1.749.971 27 27 0 0 0 .855-1.69 1 1 0 0 0-.492-1.328M16 15a1 1 0 0 0-1 1c0 1.94-.243 3.871-.724 5.75a1 1 0 0 0 1.936.499c.524-2.042.789-4.142.788-6.25A1 1 0 0 0 16 15"/></svg>