<svg xmlns="http://www.w3.org/2000/svg" width="32" height="32"  ><path fill="currentColor" d="M9 16a16.8 16.8 0 0 1-1.77 7.559 1 1 0 1 1-1.79-.89A14.85 14.85 0 0 0 7 16a8.97 8.97 0 0 1 3.376-7.025 1 1 0 1 1 1.25 1.561A6.97 6.97 0 0 0 9 16m7-1a1 1 0 0 0-1 1c0 3.896-.989 7.728-2.874 11.138a1 1 0 1 0 1.75.97A25 25 0 0 0 17 16a1 1 0 0 0-1-1m0-4a5 5 0 0 0-5 5 1 1 0 1 0 2 0 3 3 0 1 1 6 0 26.8 26.8 0 0 1-2.563 11.5 1.003 1.003 0 0 0 1.813.854A28.75 28.75 0 0 0 21 16a5 5 0 0 0-5-5m0-8A13.014 13.014 0 0 0 3 16a11 11 0 0 1-.625 3.666 1 1 0 1 0 1.887.666c.49-1.391.74-2.856.738-4.332a11 11 0 1 1 22 0c.001 2.285-.22 4.564-.66 6.806a1 1 0 1 0 1.96.388c.466-2.37.7-4.78.7-7.194A13.015 13.015 0 0 0 16 3m-4.2 16.021a1 1 0 0 0-1.174.781 18.9 18.9 0 0 1-2.152 5.68 1 1 0 0 0 1.733 1 20.8 20.8 0 0 0 2.375-6.28 1 1 0 0 0-.782-1.18M16 7q-.564 0-1.124.07a1 1 0 0 0 .25 1.984A7.01 7.01 0 0 1 23 16c0 1.295-.08 2.59-.24 3.875a.998.998 0 1 0 1.98.258 33 33 0 0 0 .25-4.125A9.01 9.01 0 0 0 16 7m7.242 16.031a1 1 0 0 0-1.219.719 33 33 0 0 1-.625 2.125 1 1 0 0 0 .944 1.319 1 1 0 0 0 .947-.683c.25-.74.474-1.5.669-2.256a1 1 0 0 0-.715-1.223z"/></svg>