<svg xmlns="http://www.w3.org/2000/svg" width="32" height="32"  ><path fill="currentColor" d="M22.986 19.167a7.2 7.2 0 0 1-5.82 5.819Q17.084 25 17 25a1 1 0 0 1-.165-1.986c2.071-.35 3.829-2.107 4.18-4.182a1 1 0 1 1 1.973.335zM27 18a11 11 0 1 1-22 0c0-3.49 1.375-7.059 4.082-10.606a1 1 0 0 1 1.492-.112l3.015 2.927 2.75-7.552a1 1 0 0 1 1.579-.426C20.65 4.5 27 10.569 27 18m-2 0c0-5.761-4.474-10.74-7.276-13.291l-2.784 7.633a1 1 0 0 1-1.636.375L10.008 9.52C8.01 12.4 7 15.25 7 18a9 9 0 0 0 18 0"/></svg>