<svg xmlns="http://www.w3.org/2000/svg" width="32" height="32"  ><path fill="currentColor" d="M21.008 9.492a1.5 1.5 0 1 1-3 0 1.5 1.5 0 0 1 3 0m4.984 10.125c-2.595 3.297-6.731 5.093-12.301 5.347l-2.75 6.427a1 1 0 0 1-.924.609h-.064a1 1 0 0 1-.899-.723l-1.85-6.48L.725 22.94A1 1 0 0 1 .6 21.06l6.428-2.75c.25-5.571 2.052-9.708 5.35-12.301 5.4-4.25 13.113-2.854 14.604-2.532a2 2 0 0 1 1.533 1.533c.33 1.49 1.727 9.21-2.524 14.615zm-5.791 1.96a6.52 6.52 0 0 1-4.178-5.6 6.51 6.51 0 0 1-5.597-4.176c-.875 1.983-1.345 4.389-1.413 7.203a1 1 0 0 1-.606.895L3.98 21.792l4.307 1.234a1 1 0 0 1 .686.686l1.23 4.308 1.898-4.426a1 1 0 0 1 .899-.607c2.81-.066 5.216-.538 7.2-1.41m6.366-16.143c-1.338-.29-8.25-1.55-12.946 2.147-.592.467-1.13.998-1.604 1.584a4.5 4.5 0 0 0 4.92 4.809 1 1 0 0 1 1.09 1.09 4.502 4.502 0 0 0 4.811 4.92 10 10 0 0 0 1.581-1.602c3.697-4.696 2.438-11.61 2.148-12.948"/></svg>