<svg xmlns="http://www.w3.org/2000/svg" width="32" height="32"  ><path fill="currentColor" d="M30.729 15.204a1.94 1.94 0 0 0-1.19-.917 9.2 9.2 0 0 0-2.772-.277c.5-2.481.125-4.444-.257-5.607a2.02 2.02 0 0 0-2.349-1.36 10.7 10.7 0 0 0-3.568 1.514 11.8 11.8 0 0 0-3.39-4.156 2.01 2.01 0 0 0-2.407 0 11.8 11.8 0 0 0-3.388 4.156 10.7 10.7 0 0 0-3.57-1.514 2.02 2.02 0 0 0-2.348 1.36c-.375 1.163-.75 3.124-.258 5.607a9.2 9.2 0 0 0-2.77.277 1.94 1.94 0 0 0-1.19.917 2 2 0 0 0-.2 1.534c.423 1.57 1.724 4.56 5.665 6.915C10.68 26.008 14.141 26 16.007 26c1.864 0 5.333 0 9.25-2.347 3.94-2.355 5.242-5.344 5.665-6.915a2 2 0 0 0-.193-1.534M7.392 9.017A.025.025 0 0 1 7.422 9a8.8 8.8 0 0 1 3.226 1.458 14.8 14.8 0 0 0-.648 4.44c0 2.342.471 4.25 1.139 5.784-.95-.95-1.77-2.019-2.443-3.181-2.252-3.922-1.784-7-1.304-8.482m.375 12.92c-3.333-1.99-4.415-4.43-4.767-5.725a7.5 7.5 0 0 1 2.812-.146q.471 1.26 1.144 2.427a17.8 17.8 0 0 0 4.25 4.945 14.4 14.4 0 0 1-3.444-1.502zM16 23.8c-1.166-.867-4-3.529-4-8.904C12 9.588 14.797 6.905 16 6c1.203.907 4 3.59 4 8.899 0 5.372-2.834 8.034-4 8.901m5.352-13.343A8.8 8.8 0 0 1 24.58 9a.025.025 0 0 1 .029.019c.48 1.481.948 4.559-1.304 8.481a15.4 15.4 0 0 1-2.443 3.185C21.53 19.153 22 17.243 22 14.9a14.8 14.8 0 0 0-.648-4.443M29 16.215c-.346 1.281-1.425 3.726-4.761 5.721a14.4 14.4 0 0 1-3.444 1.5 17.8 17.8 0 0 0 4.25-4.945c.448-.775.83-1.587 1.144-2.426a7.5 7.5 0 0 1 2.811.149z"/></svg>