<svg xmlns="http://www.w3.org/2000/svg" width="32" height="32"  ><path fill="currentColor" d="M28.632 6.736a4.12 4.12 0 0 0-3.369-3.368c-4.046-.687-11.673-1-17.283 4.612-5.61 5.613-5.3 13.238-4.613 17.284a4.115 4.115 0 0 0 3.375 3.369c1.418.241 2.853.364 4.291.367 4.012 0 9.007-1 12.987-4.98 5.61-5.61 5.298-13.237 4.612-17.284m-7.701-1.75a24 24 0 0 1 4 .35 2.12 2.12 0 0 1 1.731 1.734c.258 1.495.371 3.011.338 4.528L20.4 5q.262-.013.53-.012zM7.07 26.663a2.12 2.12 0 0 1-1.733-1.733A23.6 23.6 0 0 1 5 20.403L11.597 27a23.5 23.5 0 0 1-4.527-.337m15.537-4.055c-1.451 1.45-4.159 3.466-8.421 4.158l-8.953-8.952c.693-4.263 2.71-6.97 4.16-8.421 1.45-1.452 4.157-3.468 8.42-4.16l8.953 8.953c-.693 4.263-2.709 6.97-4.159 8.422m-1.902-11.313a1 1 0 0 1 0 1.414L18.912 14.5l.793.793a1 1 0 1 1-1.414 1.412l-.791-.791-1.587 1.586.793.793a1 1 0 1 1-1.413 1.413l-.793-.793-1.793 1.792a1 1 0 1 1-1.414-1.414l1.794-1.79-.792-.793a1 1 0 0 1 1.413-1.413l.793.793 1.585-1.588-.793-.792a1 1 0 0 1 1.413-1.414l.794.794 1.792-1.793a1 1 0 0 1 1.413 0"/></svg>