<svg xmlns="http://www.w3.org/2000/svg" width="32" height="32"  ><path fill="currentColor" d="m30.416 14.586-2-2a2 2 0 0 0-2.605-.191L19.606 6.19a2 2 0 0 0-.19-2.605l-2-2a2 2 0 0 0-2.83 0l-8 8a2 2 0 0 0 0 2.829l2 2a2 2 0 0 0 2.605.19l.896.896-8.173 8.172a3.125 3.125 0 0 0 4.415 4.415l8.172-8.172.896.895a2 2 0 0 0 .19 2.605l2 2a2 2 0 0 0 2.829 0l8-8a2 2 0 0 0 0-2.829M10 13l-2-2 8-8 2 2zM6.916 26.673a1.125 1.125 0 0 1-1.587 0 1.125 1.125 0 0 1 0-1.585l8.172-8.173 1.586 1.585zm5.71-13.465 5.582-5.583 6.168 6.168-5.582 5.582zM21 24l-2-2 .5-.5 7-7 .5-.5 2 2z"/></svg>