<svg xmlns="http://www.w3.org/2000/svg" width="32" height="32"  ><path fill="currentColor" d="m28.77 14.638-2.488-9.513a1.493 1.493 0 0 0-2.849-.139L21.223 11H10.778l-2.21-6.016a1.492 1.492 0 0 0-2.848.141l-2.488 9.513a7.15 7.15 0 0 0 2.75 7.624l9.159 6.47a1.49 1.49 0 0 0 1.717 0l9.16-6.47a7.15 7.15 0 0 0 2.752-7.625m-3.905 5.987L16 26.886l-8.864-6.261a5.14 5.14 0 0 1-1.969-5.48l2.083-7.958 1.891 5.158a1 1 0 0 0 .939.655h11.84a1 1 0 0 0 .939-.655l1.89-5.158 2.08 7.957a5.14 5.14 0 0 1-1.965 5.481"/></svg>