<svg xmlns="http://www.w3.org/2000/svg" width="32" height="32"  ><path fill="currentColor" d="m28.77 14.638-2.488-9.513a1.493 1.493 0 0 0-2.849-.139L21.223 11H10.778l-2.21-6.016a1.492 1.492 0 0 0-2.848.141l-2.488 9.513a7.15 7.15 0 0 0 2.75 7.624l9.159 6.47a1.49 1.49 0 0 0 1.717 0l9.16-6.47a7.15 7.15 0 0 0 2.752-7.625M7.25 7.187l1.892 5.157a1 1 0 0 0 .939.655h11.84a1 1 0 0 0 .939-.655l1.89-5.158 1.635 6.25L16 20.778l-10.388-7.34zm-2.164 8.326L14.267 22l-2.59 1.831-4.54-3.206a5.13 5.13 0 0 1-2.051-5.111M16 26.889l-2.591-1.831L16 23.225l2.592 1.83zm8.864-6.264-4.54 3.207L17.735 22l9.18-6.488a5.13 5.13 0 0 1-2.05 5.113"/></svg>