<svg xmlns="http://www.w3.org/2000/svg" width="32" height="32"  ><path fill="currentColor" d="M29.7 18.973 21.14 4.94A1.99 1.99 0 0 0 19.446 4h-6.892a1.99 1.99 0 0 0-1.695.94l-.006.009-8.548 14.013a2 2 0 0 0-.04 2.053l3.414 5.977A2 2 0 0 0 7.414 28h17.17a2 2 0 0 0 1.736-1.008l3.415-5.977a1.99 1.99 0 0 0-.035-2.043M27.375 19h-5.81l-4.4-7.334 2.845-4.74zm-14.61 0L16 13.61 19.234 19zm7.668 2 3 5H8.566l3-5zM16 9.723 13.765 6l4.472-.006zm-4.012-2.797 2.845 4.74-4.4 7.334H4.624zM4.567 21h4.666L6.84 24.99zm20.593 3.991L22.765 21h4.676z"/></svg>