<svg xmlns="http://www.w3.org/2000/svg" width="32" height="32"  ><path fill="currentColor" d="M6.74 4.328a1 1 0 1 0-1.48 1.345L6.477 7.01A10 10 0 0 0 6 7.001a1 1 0 0 0-1 1v10a11.013 11.013 0 0 0 11 11c2.857.001 5.601-1.11 7.651-3.098l1.61 1.77a1 1 0 1 0 1.48-1.345zm10.297 14.297A11 11 0 0 0 16 20.421a11.02 11.02 0 0 0-9-6.375v-4.99q.84.093 1.648.343zM15 26.945A9.013 9.013 0 0 1 7 18v-1.945A9.01 9.01 0 0 1 15 25zm2 0V25c.001-1.72.494-3.403 1.42-4.851l3.885 4.274A8.98 8.98 0 0 1 17 26.945M27 18c0 .988-.132 1.972-.393 2.925a1 1 0 0 1-1.93-.529A9 9 0 0 0 25 18v-1.946a8.9 8.9 0 0 0-3.07.916 1.001 1.001 0 0 1-1.224-1.545q.136-.15.32-.237A10.8 10.8 0 0 1 25 14.045V9.056a9.04 9.04 0 0 0-6.294 3.67 1.003 1.003 0 0 1-1.625-1.173 11 11 0 0 1 3.146-2.913C19.077 6.225 16.93 4.718 16 4.15a12.5 12.5 0 0 0-2.925 2.493 1.001 1.001 0 0 1-1.727-.95 1 1 0 0 1 .201-.342 14 14 0 0 1 4-3.25 1 1 0 0 1 .895 0c.165.083 3.784 1.93 5.574 5.644C23.288 7.252 24.638 7 26 7a1 1 0 0 1 1 1z"/></svg>