<svg xmlns="http://www.w3.org/2000/svg" width="32" height="32"  ><path fill="currentColor" d="m31.418 14-8.432-8.49a12.01 12.01 0 0 0-16.971 0l-.012.011L4.283 7.3A1 1 0 0 0 5.717 8.69L7.435 6.92A10 10 0 0 1 9.773 5.18L15.586 11l-12 12a2 2 0 0 0 0 2.829l2.586 2.586a2 2 0 0 0 2.829 0l12-12 1.792 1.792 2.208 2.205a2 2 0 0 0 2.829 0l3.586-3.586A2 2 0 0 0 31.418 14M7.586 27l-2.585-2.586 8.5-8.5 2.585 2.586zm12.707-12.71-2.792 2.794-2.586-2.584 2.793-2.794a1 1 0 0 0 0-1.415l-5.917-5.916a10 10 0 0 1 9.779 2.551l5.527 5.564-3.596 3.592-1.793-1.792a1 1 0 0 0-1.415 0m6.125 4.707-1.5-1.5 3.583-3.59 1.5 1.5z"/></svg>