<svg xmlns="http://www.w3.org/2000/svg" width="32" height="32"  ><path fill="currentColor" d="M6 9.5a7.5 7.5 0 0 1 15 0 1 1 0 1 1-2 0 5.5 5.5 0 1 0-11 0 1 1 0 1 1-2 0M23.5 15a3.5 3.5 0 0 0-1.67.424A3.5 3.5 0 0 0 17 13.338V9.5a3.5 3.5 0 1 0-7 0v10l-.477-.766a3.5 3.5 0 0 0-6.052 3.521l3.665 6.25A1 1 0 1 0 8.861 27.5L5.2 21.25a1.5 1.5 0 1 1 2.598-1.5l.017.029 2.335 3.75A1 1 0 0 0 12 23V9.5a1.5 1.5 0 1 1 3 0V18a1 1 0 0 0 2 0v-1.5a1.5 1.5 0 1 1 3 0V19a1 1 0 0 0 2 0v-.5a1.5 1.5 0 1 1 3 0V23c0 2.701-.887 4.538-.895 4.552a1 1 0 0 0 1.79.896c.046-.092 1.106-2.25 1.106-5.448v-4.5A3.5 3.5 0 0 0 23.5 15"/></svg>