<svg xmlns="http://www.w3.org/2000/svg" width="32" height="32"  ><path fill="currentColor" d="M26 17.5V22c0 3.199-1.062 5.356-1.107 5.448a1 1 0 1 1-1.788-.895C23.113 26.538 24 24.7 24 22v-4.5a1.5 1.5 0 0 0-3 0v.5a1 1 0 0 1-2 0v-2.5a1.5 1.5 0 0 0-3 0V17a1 1 0 0 1-2 0V8.5a1.5 1.5 0 0 0-3 0V22a1 1 0 0 1-1.848.529l-2.335-3.75-.018-.029a1.5 1.5 0 0 0-2.6 1.5L7.86 26.5a1 1 0 1 1-1.726 1L2.47 21.25A3.5 3.5 0 1 1 8.52 17.73L9 18.5v-10a3.5 3.5 0 1 1 7 0v3.838a3.5 3.5 0 0 1 4.83 2.086A3.5 3.5 0 0 1 26 17.5M30 6h-6.587l2.292-2.292a1 1 0 0 0-1.413-1.415l-4 4a1 1 0 0 0 0 1.415l4 4a1 1 0 0 0 1.413-1.415L23.413 8h6.586a1 1 0 1 0 0-2"/></svg>