<svg xmlns="http://www.w3.org/2000/svg" width="32" height="32"  ><path fill="currentColor" d="M29.833 15.445 22.795 4.89A2 2 0 0 0 21.131 4H10.875a2 2 0 0 0-1.664.89L2.174 15.445a1 1 0 0 0-.133.817l2.8 10.264A2.006 2.006 0 0 0 6.763 28H10a2 2 0 0 0 2-2v-2h8v2a2 2 0 0 0 2 2h3.236a2.006 2.006 0 0 0 1.93-1.474l2.8-10.263a1 1 0 0 0-.133-.818M10 22V8.724l3 1.713V17a1 1 0 1 0 2 0v-5.42l.5.295a1 1 0 0 0 1 0l.5-.289V16a1 1 0 1 0 2 0v-5.562l3-1.714V22zM21.131 6l.443.664L16 9.849l-5.574-3.185.45-.664zm-11.13 20H6.763l-2.679-9.824L8 10.303V22a2 2 0 0 0 2 2zm15.235 0H22v-2a2 2 0 0 0 2-2V10.303l3.915 5.874z"/></svg>