<svg xmlns="http://www.w3.org/2000/svg" width="32" height="32"  ><path fill="currentColor" d="M17 12.5a1.5 1.5 0 1 1-3.001 0 1.5 1.5 0 0 1 3 0m12 3.685A13.037 13.037 0 0 1 16.261 29h-.271a12.92 12.92 0 0 1-8.658-3.25 1.004 1.004 0 0 1 1.334-1.5c.753.674 1.6 1.237 2.512 1.671l3.32-4.566c-2.847-1.229-5.933-.706-7.675-.411a3.98 3.98 0 0 1-3.912-1.604l-.038-.054-1.722-2.75a1 1 0 0 1 .324-1.381l12.523-7.714V4a1 1 0 0 1 1-1h1a13 13 0 0 1 13 13.185m-2-.027A11 11 0 0 0 16 5v3a1 1 0 0 1-.477.851L3.382 16.324l1.17 1.875a1.99 1.99 0 0 0 1.947.772c2-.337 6.097-1.03 9.76 1.023A5.01 5.01 0 0 0 20.998 15a1 1 0 1 1 2 0 7.01 7.01 0 0 1-6.475 6.979l-3.388 4.66c1.007.26 2.045.383 3.086.361a11.036 11.036 0 0 0 10.777-10.843"/></svg>