<svg xmlns="http://www.w3.org/2000/svg" width="32" height="32"  ><path fill="currentColor" d="M21.828 10.171a10 10 0 1 0-11.657 11.657 10 10 0 1 0 11.657-11.657M12.586 17l2.413 2.413A7.9 7.9 0 0 1 12 20c0-1.029.199-2.048.587-3m4.218 1.391-3.196-3.196c.452-.6.986-1.134 1.586-1.587l3.197 3.197a8 8 0 0 1-1.587 1.586M19.414 15l-2.415-2.414A7.9 7.9 0 0 1 20 12a7.9 7.9 0 0 1-.586 3M3.998 12a8 8 0 0 1 15.75-2 10.01 10.01 0 0 0-9.743 9.75A8.014 8.014 0 0 1 3.999 12m16 16a8.014 8.014 0 0 1-7.75-6A10.01 10.01 0 0 0 22 12.25 8 8 0 0 1 20 28"/></svg>