<svg xmlns="http://www.w3.org/2000/svg" width="32" height="32"  ><path fill="currentColor" d="M28.977 4.024a3.5 3.5 0 0 0-4.96.009L2.285 26.325A1 1 0 0 0 2.775 28c1.435.332 2.903.5 4.375.5 4.178 0 8.36-1.36 12.292-4.026 3.968-2.691 6.268-5.731 6.365-5.86a1 1 0 0 0-.093-1.308l-2.342-2.345 5.625-6a3.51 3.51 0 0 0-.02-4.937m-5.324 14.055a28.2 28.2 0 0 1-5.389 4.772c-4.309 2.907-8.75 4.088-13.23 3.52l13.288-13.625zm3.91-10.516-.023.023-5.588 5.96-2.234-2.237 5.722-5.875a1.503 1.503 0 0 1 2.125 2.125z"/></svg>