<svg xmlns="http://www.w3.org/2000/svg" width="32" height="32"  ><path fill="currentColor" d="M27.932 5.009a1 1 0 0 0-.94-.94C17.476 3.51 9.853 6.375 6.603 11.75a10.9 10.9 0 0 0-1.595 6.125c.071 1.99.651 4 1.724 5.981l-2.439 2.438a1 1 0 1 0 1.415 1.415l2.438-2.439c1.98 1.071 3.99 1.651 5.98 1.723q.208.007.416.007c2.015.006 3.991-.55 5.709-1.602 5.375-3.25 8.24-10.872 7.68-20.39m-8.713 18.679c-2.843 1.722-6.21 1.75-9.588.096l11.078-11.078a1 1 0 0 0-1.415-1.415L8.217 22.375c-1.649-3.375-1.625-6.75.096-9.589 2.761-4.558 9.325-7.055 17.664-6.757.299 8.332-2.199 14.897-6.758 17.659"/></svg>