<svg xmlns="http://www.w3.org/2000/svg" width="32" height="32"  ><path fill="currentColor" d="M6.74 4.327a1 1 0 1 0-1.48 1.345l4.906 5.398-4.897 5.25a1 1 0 0 0 .375 1.625l7.204 2.701-1.828 9.158a1 1 0 0 0 1.712.875l7.732-8.285 4.796 5.275a1 1 0 1 0 1.48-1.345zm6.932 22.423 1.308-6.547a1 1 0 0 0-.625-1.133L7.75 16.589l3.765-4.034 7.598 8.358zm-.09-17.875a1 1 0 0 1-.048-1.414l5.735-6.145a1 1 0 0 1 1.711.875l-1.832 9.172 7.204 2.7a1 1 0 0 1 .375 1.62l-2.788 2.986a1 1 0 0 1-1.462-1.364l1.773-1.894-6.6-2.475a1 1 0 0 1-.625-1.132l1.309-6.548L15 8.827a1 1 0 0 1-1.417.048"/></svg>