<svg xmlns="http://www.w3.org/2000/svg" width="32" height="32"  ><path fill="currentColor" d="M29.83 4.17A3.999 3.999 0 0 0 23 6.999a4 4 0 0 0 1.172 2.828q.055.055.112.107l-3.328 6.182a4.02 4.02 0 0 0-2.988.438l-2.523-2.523a4 4 0 1 0-7.142-3.563 4 4 0 0 0 .868 4.36l.11.106-3.328 6.183a4 4 0 0 0-4.65 5.415 4 4 0 1 0 6.524-4.36q-.055-.053-.113-.106l3.329-6.182q.471.114.956.116a4 4 0 0 0 2.031-.551l2.523 2.522a4.001 4.001 0 1 0 6.164-.904l3.329-6.182q.47.115.953.115a4 4 0 0 0 2.829-6.828zM6.411 26.416a2 2 0 1 1-2.83-2.83 2 2 0 0 1 2.83 2.83m4.172-13a2 2 0 1 1 2.828-2.829 2 2 0 0 1-2.828 2.83m10.83 8a2 2 0 1 1-2.828-2.829 2 2 0 0 1 2.828 2.83m7-13a2.001 2.001 0 1 1 .002-.002z"/></svg>