<svg xmlns="http://www.w3.org/2000/svg" width="32" height="32"  ><path fill="currentColor" d="M20.708 11.293a1 1 0 0 1 0 1.415l-8 8a1.003 1.003 0 0 1-1.415 0 1 1 0 0 1 0-1.415l8-8a1 1 0 0 1 1.415 0M26.95 5.05a7 7 0 0 0-9.9 0l-3.757 3.756a1 1 0 1 0 1.415 1.415l3.757-3.75a5 5 0 0 1 7.072 7.07l-3.76 3.758a1 1 0 1 0 1.415 1.415l3.758-3.764a7 7 0 0 0 0-9.9m-9.657 16.728-3.758 3.757a4.999 4.999 0 1 1-7.07-7.071l3.757-3.756a1 1 0 1 0-1.415-1.415L5.05 17.05a7 7 0 1 0 9.9 9.9l3.758-3.759a1 1 0 0 0-1.415-1.413"/></svg>