<svg xmlns="http://www.w3.org/2000/svg" width="32" height="32"  ><path fill="currentColor" d="M28.625 27.781a1 1 0 0 1-1.405-.156C27.048 27.409 23 22.233 23 12a7 7 0 0 0-14 0c0 10.233-4.047 15.409-4.22 15.625a1 1 0 1 1-1.563-1.25c.019-.025.961-1.238 1.891-3.593C5.971 20.6 7 16.956 7 12a9 9 0 1 1 18 0c0 4.955 1.028 8.6 1.89 10.785.936 2.367 1.883 3.58 1.893 3.593a1 1 0 0 1-.158 1.403M12.5 12a1.5 1.5 0 1 0 0 3 1.5 1.5 0 0 0 0-3m8.5 1.5a1.5 1.5 0 1 0-3 0 1.5 1.5 0 0 0 3 0m-8.553 3.605a1 1 0 0 0-.894 1.789l4 2a1 1 0 0 0 .894 0l4-2a1 1 0 1 0-.895-1.789L16 18.881zM16 23a6.76 6.76 0 0 0-5.875 3.514 1.001 1.001 0 0 0 1.75.972 4.67 4.67 0 0 1 8.25 0 1.002 1.002 0 0 0 1.75-.972A6.76 6.76 0 0 0 16 23"/></svg>