<svg xmlns="http://www.w3.org/2000/svg" width="32" height="32"  ><path fill="currentColor" d="M6 8a1 1 0 0 1 1-1h2V5a1 1 0 0 1 2 0v2h2a1 1 0 1 1 0 2h-2v2a1 1 0 1 1-2 0V9H7a1 1 0 0 1-1-1m17 16h-1v-1a1 1 0 1 0-2 0v1h-1a1 1 0 0 0 0 2h1v1a1 1 0 0 0 2 0v-1h1a1 1 0 0 0 0-2m7-6h-2v-2a1 1 0 1 0-2 0v2h-2a1 1 0 0 0 0 2h2v2a1 1 0 0 0 2 0v-2h2a1 1 0 0 0 0-2m-2.585-8L10 27.414a2 2 0 0 1-2.828 0l-2.587-2.585a2 2 0 0 1 0-2.829L22 4.586a2 2 0 0 1 2.829 0l2.585 2.585a2 2 0 0 1 0 2.829m-6.83 4-2.584-2.586-12 12L8.586 26zm5.416-5.414L23.415 6l-4 4L22 12.586z"/></svg>