<svg xmlns="http://www.w3.org/2000/svg" width="32" height="32"  ><path fill="currentColor" d="M25.875 6.281A10.93 10.93 0 0 0 18.075 3h-.042a10.94 10.94 0 0 0-7.783 3.226L2.576 14a2 2 0 0 0 .007 2.82l3.583 3.582a2 2 0 0 0 1.415.587h.011a2 2 0 0 0 1.42-.603l7.613-7.8a2.01 2.01 0 0 1 2.8-.026 1.95 1.95 0 0 1 .592 1.399 2.1 2.1 0 0 1-.606 1.5l-7.786 7.526a2 2 0 0 0-.022 2.849l3.583 3.582a2.01 2.01 0 0 0 2.815.015l7.725-7.556c4.306-4.312 4.372-11.305.149-15.594M7.58 18.986 4 15.405l2.975-3.015 3.565 3.565zM16.598 28l-3.585-3.581 3.048-2.947 3.564 3.568zm7.72-7.555-3.263 3.192-3.555-3.552 3.305-3.196.012-.011a4.12 4.12 0 0 0 1.196-2.938 3.93 3.93 0 0 0-1.205-2.815 4.025 4.025 0 0 0-5.612.063l-3.26 3.335-3.561-3.556 3.293-3.33A8.94 8.94 0 0 1 18.033 5h.034a8.94 8.94 0 0 1 6.381 2.685c3.458 3.509 3.395 9.237-.13 12.763z"/></svg>