<svg xmlns="http://www.w3.org/2000/svg" width="32" height="32"  ><path fill="currentColor" d="m26.74 26.327-20-22a1 1 0 1 0-1.48 1.345L10 10.886V16a6 6 0 0 0 9.239 5.05l1.36 1.5A8 8 0 0 1 8 16a1 1 0 1 0-2 0 10.014 10.014 0 0 0 9 9.95V29a1 1 0 1 0 2 0v-3.051a9.97 9.97 0 0 0 4.953-1.914l3.307 3.637a1 1 0 1 0 1.48-1.345M16 20a4 4 0 0 1-4-4v-2.914l5.865 6.453a4 4 0 0 1-1.865.46M10.895 4.847A6 6 0 0 1 22 8v7.554a1 1 0 1 1-2 0V8a4 4 0 0 0-7.405-2.101 1 1 0 1 1-1.7-1.052m12.56 14.062a8 8 0 0 0 .545-2.91 1 1 0 1 1 2 0 10 10 0 0 1-.682 3.637 1.002 1.002 0 0 1-1.636.374 1 1 0 0 1-.227-1.101"/></svg>