<svg xmlns="http://www.w3.org/2000/svg" width="32" height="32"  ><path fill="currentColor" d="M27 15q-.414 0-.824.069l-.728-1.893A7 7 0 0 1 27.001 13a1 1 0 0 0 0-2h-2.39l-1.676-4.359A1 1 0 0 0 22 6h-4a1 1 0 0 0 0 2h3.314l1.153 3h-3.467c-2.313 0-4.188.539-5.421 1.557a2 2 0 0 1-2.095.26c-1.323-.602-7.593-3.15-8.145-3.367l-.714-.28A2.2 2.2 0 0 0 2 9a1 1 0 0 0-.359 1.932c.058.023 5.899 2.288 9.016 3.704a4.02 4.02 0 0 0 4.195-.536c.608-.5 1.822-1.1 4.15-1.1h2.352a8.97 8.97 0 0 0-3.022 4.574A1.98 1.98 0 0 1 16.416 19H9.9a5 5 0 1 0 0 2h6.515a3.99 3.99 0 0 0 3.842-2.887 7 7 0 0 1 3.324-4.215l.728 1.89A5 5 0 1 0 27 15M5 21h2.828a3 3 0 1 1 0-2H5.001a1 1 0 0 0 0 2m22 2a3 3 0 0 1-1.947-5.279l1.014 2.638a1 1 0 1 0 1.868-.718L26.92 17H27a3 3 0 0 1 0 6"/></svg>