<svg xmlns="http://www.w3.org/2000/svg" width="32" height="32"  ><path fill="currentColor" d="M28.83 3.17a4 4 0 0 0-5.658 0q-.019.018-.036.039l-6.864 7.647-1.147-1.151a3 3 0 0 0-4.244 0l-9.586 9.587a1 1 0 0 0 0 1.414l10 10a1 1 0 0 0 1.413 0l9.587-9.581a3 3 0 0 0 0-4.244l-1.152-1.15 7.648-6.864.039-.037a4 4 0 0 0 0-5.66M12 28.586 9.915 26.5l2.792-2.794a1 1 0 0 0-1.414-1.414L8.5 25.085 6.915 23.5l2.792-2.794a1 1 0 0 0-1.414-1.414L5.5 22.085 3.413 20 9 14.414 17.586 23zM27.432 7.395l-7.625 6.844a2 2 0 0 0-.077 2.902l1.15 1.151a1 1 0 0 1 0 1.414l-1.875 1.875L10.415 13l1.875-1.875a1 1 0 0 1 1.413 0l1.152 1.15a2 2 0 0 0 2.902-.078l6.844-7.625A2 2 0 0 1 27.428 7.4z"/></svg>