<svg fill="currentColor" aria-hidden="true" width="32" height="32" xmlns="http://www.w3.org/2000/svg"><path d="M7.261 6.201a.75.75 0 0 0-1.06 1.06l18 18a.75.75 0 1 0 1.06-1.06zm19.146 10.083a11.249 11.249 0 0 1-2.63 4.31l-3.1-3.099a5.25 5.25 0 0 0-6.71-6.71L11.49 8.308a11.217 11.217 0 0 1 4.242-.827c4.97 0 9.185 3.223 10.675 7.69.12.362.12.752 0 1.113z"/><path d="M19.295 15.4c0 .18-.013.356-.037.53l-4.244-4.244a3.75 3.75 0 0 1 4.281 3.713zm-3.22 3.712-4.243-4.244a3.75 3.75 0 0 0 4.244 4.243z"/><path d="M10.565 14.783c0-.619.107-1.213.304-1.764l-3.1-3.1a11.25 11.25 0 0 0-2.63 4.31c-.12.362-.12.752 0 1.114 1.49 4.467 5.704 7.69 10.675 7.69 1.5 0 2.933-.294 4.242-.827L17.58 19.73a5.25 5.25 0 0 1-7.014-4.946z"/></svg>