<svg xmlns="http://www.w3.org/2000/svg" width="32" height="32"  ><path fill="currentColor" d="M29.897 11.381A1.97 1.97 0 0 0 28 10.001h-7.625l-2.472-7.593a1.991 1.991 0 0 0-3.806-.007l-2.465 7.6H3.999a2 2 0 0 0-1.17 3.624l6.182 4.448-2.368 7.302a1.97 1.97 0 0 0 .731 2.235 1.97 1.97 0 0 0 2.347 0l6.278-4.516 6.28 4.516a2 2 0 0 0 3.077-2.235l-2.375-7.307 6.186-4.452a1.97 1.97 0 0 0 .73-2.235M16 3.02 18.265 10h-4.53zM4 12h6.983l-1.321 4.07zm4.542 14 2.174-6.699 3.567 2.568zm2.821-8.696L13.086 12h5.827l1.719 5.298-4.633 3.327zM23.45 26l-5.738-4.125 3.567-2.567zm-1.117-9.922L21.016 12H28z"/></svg>