<svg xmlns="http://www.w3.org/2000/svg" width="32" height="32"  ><path fill="currentColor" d="M20.91 5.053A5.01 5.01 0 0 0 16 1a1 1 0 1 0 0 2 3 3 0 0 1 2.857 2.082A8.01 8.01 0 0 0 12.001 13c0 5.844-3.219 9.75-9.567 11.625a2 2 0 0 0 .222 3.891c1.878.325 3.782.487 5.688.484 5.098 0 10.77-1.144 14.692-4.433C26.33 21.806 28 17.914 28 13a8.01 8.01 0 0 0-7.091-7.947M20 7a6.01 6.01 0 0 1 5.672 4.046l-1.671.829-3.553-1.771a1 1 0 0 0-.895 0l-3.552 1.771-1.672-.835A6.01 6.01 0 0 1 20.002 7m1.75 16.038c-2.25 1.883-5.45 3.157-9.264 3.683A31.8 31.8 0 0 1 3 26.546c7.154-2.108 10.954-6.75 11-13.427l1.555.777a1 1 0 0 0 .895 0l3.55-1.78 3.552 1.777a1 1 0 0 0 .895 0L26 13.117c-.027 4.238-1.456 7.575-4.25 9.92"/></svg>