<svg xmlns="http://www.w3.org/2000/svg" width="32" height="32"  ><path fill="currentColor" d="M6.742 4.328a1 1 0 1 0-1.48 1.345l3.449 3.795a17.7 17.7 0 0 0-5.659 3.805c-2.5 2.5-2.74 6.182-.586 8.958a2 2 0 0 0 2.297.634l6.125-2.171.037-.014a2 2 0 0 0 1.218-1.465l.738-3.689q.525-.18 1.07-.3l11.314 12.447a1 1 0 0 0 1.42.076 1 1 0 0 0 .06-1.421zm5.462 9.315a2 2 0 0 0-1.29 1.492l-.737 3.688-6.097 2.162c-.013 0-.022.016-.034.021-1.541-1.987-1.375-4.527.42-6.32a15.7 15.7 0 0 1 5.684-3.637l2.287 2.517q-.116.037-.232.077m17.332 8.588a2 2 0 0 1-2.298.634l-1.156-.41a1 1 0 0 1 .669-1.885l1.171.415.037.015c1.538-1.981 1.375-4.521-.423-6.314-3.208-3.207-7.735-4.908-12.419-4.663a1.001 1.001 0 1 1-.104-2c5.25-.274 10.329 1.637 13.937 5.25 2.498 2.498 2.74 6.182.586 8.958"/></svg>