<svg xmlns="http://www.w3.org/2000/svg" width="32" height="32"  ><path fill="currentColor" d="m28.707 27.293-6.053-6.052q.207-.061.409-.133a7.5 7.5 0 0 0 4.483-9.608 1 1 0 0 0-1.282-.598l-5.525 2.01q.061-.115.116-.235A7.5 7.5 0 0 0 11.5 2.457a1 1 0 0 0-.602 1.28l2.01 5.525q-.116-.061-.235-.116a7.5 7.5 0 0 0-10.217 9.362 1 1 0 0 0 1.282.597l5.525-2.011q-.06.116-.117.236a7.5 7.5 0 0 0 9.362 10.216 1 1 0 0 0 .597-1.281l-2.011-5.525q.117.061.236.116c.883.413 1.837.65 2.81.698l7.153 7.154a1 1 0 0 0 1.415-1.415M16.383 4.518a5.5 5.5 0 0 1 .466 9.731L13.148 4.079a5.45 5.45 0 0 1 3.235.44M4.078 16.852a5.5 5.5 0 0 1 10.171-3.7zm9.546 8.632a5.5 5.5 0 0 1-.466-9.727l3.7 10.167a5.45 5.45 0 0 1-3.234-.44m6.945-5.923h-.014a5.52 5.52 0 0 1-4.792-2.711l10.166-3.701a5.507 5.507 0 0 1-5.36 6.412"/></svg>