<svg xmlns="http://www.w3.org/2000/svg" width="32" height="32"  ><path fill="currentColor" d="M29.942 7.875a1.99 1.99 0 0 0-.907-1.237 25.19 25.19 0 0 0-26.072 0 2 2 0 0 0-.671 2.75l12 19.658a2 2 0 0 0 3.42 0l12-19.658a1.98 1.98 0 0 0 .23-1.513M7.948 14.813a3 3 0 1 1 3.059 5.01zm10.99 8.368a3 3 0 0 1 3.061-5.01zm4.116-6.74a5 5 0 0 0-5.172 8.47l-1.883 3.09-3.937-6.447a4.999 4.999 0 0 0-1.183-9.482 5 5 0 0 0-3.986 1.012l-.794-1.301a19 19 0 0 1 19.799 0zm3.888-6.367a21.02 21.02 0 0 0-21.885 0L3.999 8.346a23.2 23.2 0 0 1 24 0z"/></svg>