<svg xmlns="http://www.w3.org/2000/svg" width="32" height="32"  ><path fill="currentColor" d="M18.708 17.292a1 1 0 0 0-1.415 0l-2.292 2.294L12.414 17l2.294-2.293a1 1 0 0 0-1.415-1.415l-2.292 2.294-2.293-2.294a1 1 0 0 0-1.415 1.415l.794.793-2.915 2.914a4 4 0 0 0 0 5.657l.672.671-3.55 3.55a1 1 0 1 0 1.414 1.415l3.55-3.55.671.672a4 4 0 0 0 5.658 0l2.914-2.915.792.793a1 1 0 0 0 1.415-1.415L16.414 21l2.294-2.293a1 1 0 0 0 0-1.415m-6.536 8.125a2 2 0 0 1-2.828 0l-2.757-2.76a2 2 0 0 1 0-2.828L9.5 16.914l5.586 5.586zM29.708 2.292a1 1 0 0 0-1.415 0l-3.55 3.552-.671-.673a4.006 4.006 0 0 0-5.658 0l-2.913 2.915-.793-.794a1 1 0 0 0-1.415 1.415l10 10a1 1 0 0 0 1.415-1.415l-.794-.792 2.915-2.914a4 4 0 0 0 0-5.657l-.672-.672 3.551-3.55a1 1 0 0 0 0-1.415m-4.294 9.875-2.913 2.92L16.914 9.5l2.915-2.914a2 2 0 0 1 2.828 0l2.757 2.75a2 2 0 0 1 0 2.835z"/></svg>