<svg xmlns="http://www.w3.org/2000/svg" width="32" height="32"  ><path fill="currentColor" d="M29.708 8.293a1 1 0 0 0-1.415 0l-4.292 4.293L19.414 8l4.294-4.292a1 1 0 0 0-1.415-1.415l-4.292 4.293-3.293-3.293a1 1 0 0 0-1.415 1.415l.794.792-6.625 6.625a5 5 0 0 0 0 7.071l1.964 1.964-6.133 6.133a1 1 0 1 0 1.415 1.415l6.136-6.137 1.964 1.964a5 5 0 0 0 7.071 0l6.625-6.625.793.794a1 1 0 0 0 1.415-1.415L25.414 14l4.294-4.292a1 1 0 0 0 0-1.415M18.466 23.125a3 3 0 0 1-4.244 0L8.876 17.78a3 3 0 0 1 0-4.244L15.5 6.91l9.586 9.59z"/></svg>