<svg xmlns="http://www.w3.org/2000/svg" width="32" height="32"  ><path fill="currentColor" d="M29.708 2.292a1 1 0 0 0-1.415 0l-6.55 6.552-.671-.673a4.006 4.006 0 0 0-5.658 0l-2.913 2.915-.793-.794a1 1 0 0 0-1.415 1.415l.794.793-2.915 2.914a4 4 0 0 0 0 5.657l.672.671-6.55 6.55a1 1 0 1 0 1.414 1.415l6.55-6.55.671.672a4 4 0 0 0 5.658 0l2.914-2.915.792.793a1 1 0 0 0 1.415-1.415l-.794-.792 2.915-2.914a4 4 0 0 0 0-5.657l-.672-.672 6.551-6.55a1 1 0 0 0 0-1.415M15.172 22.417a2 2 0 0 1-2.828 0l-2.757-2.76a2 2 0 0 1 0-2.828l2.914-2.915 5.586 5.586zm7.242-7.242-2.913 2.911-5.587-5.586 2.915-2.914a2 2 0 0 1 2.828 0l2.757 2.75a2 2 0 0 1 0 2.835zM11.052 4.316a1 1 0 1 1 1.897-.632l1 3a1 1 0 0 1-1.897.632zm-8 7.368a1 1 0 0 1 1.265-.633l3 1a1 1 0 1 1-.633 1.898l-3-1a1 1 0 0 1-.632-1.265m25.897 8.632a1 1 0 0 1-1.265.633l-3-1a1 1 0 0 1 .633-1.898l3 1a1 1 0 0 1 .632 1.265m-8 7.368a1 1 0 1 1-1.897.632l-1-3a1 1 0 0 1 1.897-.632z"/></svg>