<svg xmlns="http://www.w3.org/2000/svg" width="32" height="32"  ><path fill="currentColor" d="M28.83 6.17a4 4 0 0 0-6.302.845l-3.527-.963a4 4 0 1 0-7.55 1.794L7.21 11.665a4.006 4.006 0 0 0-5.038.506 4 4 0 0 0 5.36 5.926l8.75 6.42a4 4 0 1 0 5.947-1.836l3.424-9.699q.173.015.345.015a4 4 0 0 0 2.829-6.827zM13.58 4.584a2 2 0 1 1-.432 2.18 2 2 0 0 1 .438-2.18zm-10 11.83a2 2 0 1 1 2.826-2.828 2 2 0 0 1-2.825 2.829m17.832 11a2 2 0 1 1-2.83-2.828 2 2 0 0 1 2.83 2.829m-1.069-5.397a4 4 0 0 0-2.875.885l-8.75-6.42a4.02 4.02 0 0 0-.167-3.33l4.243-3.82a4 4 0 0 0 5.684-1.35l3.523.963a4 4 0 0 0 1.765 3.375zm7.07-11.605a2 2 0 0 1-2.883.056 2 2 0 0 1 .058-2.883 2 2 0 0 1 2.829 2.829z"/></svg>