<svg xmlns="http://www.w3.org/2000/svg" width="32" height="32"  ><path fill="currentColor" d="M28.69 9.276a1 1 0 0 0-.892-.25 5.5 5.5 0 0 0-6.799-3.817 5.5 5.5 0 0 0-10 0 5.5 5.5 0 0 0-6.8 3.813 1 1 0 0 0-1.175 1.207l3.82 16.23A2 2 0 0 0 8.792 28h14.415a2 2 0 0 0 1.947-1.541l3.819-16.23a1 1 0 0 0-.284-.953M9.5 7a3.46 3.46 0 0 1 1.638.407 1 1 0 0 0 1.445-.667 3.5 3.5 0 0 1 6.832 0 1 1 0 0 0 1.445.667 3.5 3.5 0 0 1 5.014 2.16l-4.82 1.376-4.311-1.726a2 2 0 0 0-1.485 0l-4.313 1.728-4.82-1.378A3.5 3.5 0 0 1 9.498 7m-.708 19-3.43-14.57 4.732 1.351L11.857 26zm9.332 0h-4.25l-1.781-13.36 3.906-1.562 3.906 1.562zm5.083 0h-3.065l1.762-13.219 4.731-1.351z"/></svg>