<svg xmlns="http://www.w3.org/2000/svg" width="32" height="32"  ><path fill="currentColor" d="M25 18h-9.588l.294-.294 2.508-2.507a7.45 7.45 0 0 0 3.262.795 6.2 6.2 0 0 0 3.236-.903c2.965-1.795 4.554-5.95 4.25-11.115a1 1 0 0 0-.94-.94c-5.165-.302-9.32 1.285-11.115 4.25-1.17 1.931-1.2 4.264-.108 6.5l-1.8 1.799-1.525-1.526c.75-1.657.696-3.375-.174-4.81C11.94 6.999 8.826 5.8 4.966 6.027a1 1 0 0 0-.939.94C3.8 10.824 5 13.94 7.25 15.3c.753.46 1.618.702 2.5.7.8-.008 1.59-.187 2.315-.524L13.585 17l-1 1H7a1 1 0 0 0 0 2h1.199l1.65 7.434A1.99 1.99 0 0 0 11.803 29H20.2a1.99 1.99 0 0 0 1.952-1.566L23.802 20H25a1 1 0 1 0 0-2m-6.375-9.678C19.932 6.165 23.03 4.947 27 5.002c.051 3.975-1.164 7.072-3.321 8.374-1.44.875-3.175.818-4.91-.147-.967-1.73-1.02-3.468-.144-4.907m-7.111 5.192c-1.15.616-2.29.645-3.23.075C6.848 12.717 6.02 10.664 6 7.999c2.664.02 4.719.848 5.589 2.286.57.94.536 2.079-.075 3.229M20.199 27h-8.397l-1.552-7h11.5z"/></svg>