<svg xmlns="http://www.w3.org/2000/svg" width="32" height="32"  ><path fill="currentColor" d="M6.74 4.327a1 1 0 1 0-1.48 1.345L8.423 9.15a8.7 8.7 0 0 0-3.671 1.804 2 2 0 0 0-.162 2.972l6.037 6.038-5.333 5.328a1 1 0 0 0 1.415 1.415l5.329-5.332 6.036 6.036a2 2 0 0 0 1.415.589h.141a1.99 1.99 0 0 0 1.455-.791c.591-.778 1.078-1.63 1.448-2.534l2.73 3a1 1 0 1 0 1.48-1.345zM19.489 26 6.001 12.51c1.278-1.031 2.65-1.545 4.082-1.534l10.895 11.985c-.279 1.234-.947 2.318-1.49 3.039m9.928-13-5.58 5.599a.999.999 0 1 1-1.417-1.413l5.582-5.599L20.416 4l-5.153 5.169a1 1 0 0 1-1.416-1.412L19 2.587a2 2 0 0 1 2.828 0l7.587 7.585a2 2 0 0 1 0 2.828"/></svg>