<svg xmlns="http://www.w3.org/2000/svg" width="32" height="32"  ><path fill="currentColor" d="M11.5 17H5a2 2 0 0 1-1.894-1.37 2 2 0 0 1-.098-.828 12.98 12.98 0 0 1 5.448-9.436A2 2 0 0 1 11.343 6l3.25 5.625a1.003 1.003 0 0 1-.366 1.366 1 1 0 0 1-1.366-.366L9.61 7a10.98 10.98 0 0 0-4.612 7.982.02.02 0 0 0 .01.02l6.49-.002a1 1 0 0 1 0 2m17.49-2.198a12.98 12.98 0 0 0-5.447-9.436A2 2 0 0 0 20.656 6l-3.244 5.625a1.001 1.001 0 0 0 1.732 1L22.394 7A10.98 10.98 0 0 1 27 14.982V15h-6.5a1 1 0 0 0 0 2H27a2 2 0 0 0 1.893-1.37c.09-.266.124-.548.099-.828m-9.874 4.595a1.002 1.002 0 0 0-1.833.242 1 1 0 0 0 .1.758l3.23 5.592a11.03 11.03 0 0 1-9.226 0l3.229-5.592a1.002 1.002 0 0 0-.736-1.491 1 1 0 0 0-.997.491L9.656 24.99a2 2 0 0 0 .89 2.815 13.03 13.03 0 0 0 10.907 0 2 2 0 0 0 .89-2.815zM15.999 17.5a1.5 1.5 0 1 0 0-3 1.5 1.5 0 0 0 0 3"/></svg>