<svg xmlns="http://www.w3.org/2000/svg" width="32" height="32"  ><path fill="currentColor" d="m26.348 4.906-16.28-2.875A2 2 0 0 0 7.75 3.654L4.032 24.779a2 2 0 0 0 1.625 2.316l16.281 2.875a2 2 0 0 0 2.318-1.625L27.975 7.22a2 2 0 0 0-1.627-2.314M22.283 28 6.001 25.125 9.72 4 26 6.875zM11.168 7.303a1 1 0 0 1 1.16-.81l10.374 1.83a1 1 0 1 1-.349 1.97L11.978 8.462a1 1 0 0 1-.81-1.158m-.692 3.94a1 1 0 0 1 1.159-.812l10.375 1.833a1 1 0 0 1-.175 1.986 1 1 0 0 1-.177-.016l-10.375-1.832a1 1 0 0 1-.807-1.16m-.694 3.938a1 1 0 0 1 1.159-.806l5.185.911a1 1 0 1 1-.348 1.97l-5.187-.916a1 1 0 0 1-.809-1.159"/></svg>