<svg xmlns="http://www.w3.org/2000/svg" width="32" height="32"  ><path fill="currentColor" d="M27 5H5a2 2 0 0 0-2 2v19a1 1 0 0 0 1.447.894L8 25.118l3.553 1.776a1 1 0 0 0 .894 0L16 25.118l3.552 1.776a1 1 0 0 0 .896 0L24 25.118l3.552 1.776A1 1 0 0 0 29 26V7a2 2 0 0 0-2-2m0 19.383-2.552-1.278a1 1 0 0 0-.896 0L20 24.882l-3.552-1.777a1 1 0 0 0-.896 0L12 24.882l-3.552-1.777a1 1 0 0 0-.896 0L5 24.382V7h22zm-14.707-7.09L14.586 15l-2.293-2.293a1 1 0 1 1 1.415-1.415L16 13.587l2.293-2.293a1 1 0 0 1 1.415 1.415L17.414 15l2.293 2.293a1 1 0 0 1-1.415 1.415L16 16.414l-2.293 2.293a1 1 0 0 1-1.415-1.415"/></svg>