<svg xmlns="http://www.w3.org/2000/svg" width="32" height="32"  ><path fill="currentColor" d="M12 26a1 1 0 0 1-1 1H5a3 3 0 0 1-2.596-4.5l4.286-7.406-1.756.468a1.002 1.002 0 0 1-.518-1.937l4.096-1.097a1 1 0 0 1 1.225.708l1.1 4.096a1 1 0 0 1-.972 1.264 1 1 0 0 1-.965-.741l-.475-1.769L4.139 23.5a1 1 0 0 0 .86 1.5h6a1 1 0 0 1 1 1m17.591-3.5-2.892-5a1 1 0 0 0-1.73 1l2.892 5A1 1 0 0 1 27 25h-8.586l1.292-1.293a1 1 0 1 0-1.414-1.415l-3 3a1 1 0 0 0 0 1.415l3 3a1 1 0 0 0 1.414-1.415L18.414 27H27a3 3 0 0 0 2.596-4.5zM16 4a.98.98 0 0 1 .865.5l4.286 7.406-1.76-.473a1 1 0 0 0-.516 1.932l4.097 1.098q.128.034.26.034a1 1 0 0 0 .964-.741l1.099-4.099a1.001 1.001 0 1 0-1.931-.517l-.475 1.771L18.596 3.5a3 3 0 0 0-5.192 0l-2.895 5a1 1 0 0 0 1.73 1l2.896-5A.98.98 0 0 1 16 4"/></svg>