<svg xmlns="http://www.w3.org/2000/svg" width="32" height="32"  ><path fill="currentColor" d="M19 28a1 1 0 0 1-1 1h-4a1 1 0 0 1 0-2h4a1 1 0 0 1 1 1m-3-14a1.5 1.5 0 1 0 0-3 1.5 1.5 0 0 0 0 3m11.952 5.479-1.545 6.954a2 2 0 0 1-3.189 1.138l-3.405-2.57h-7.625l-3.407 2.57a2 2 0 0 1-3.19-1.138l-1.544-6.954a2.01 2.01 0 0 1 .415-1.714l3.57-4.282c.12-1.574.481-3.12 1.071-4.584 1.613-4.043 4.5-6.579 5.671-7.481a2 2 0 0 1 2.45 0c1.168.902 4.06 3.438 5.672 7.48.59 1.465.951 3.01 1.07 4.585l3.57 4.282a2.01 2.01 0 0 1 .416 1.714M12.428 23h7.143c2.64-4.692 3.133-9.185 1.467-13.36C19.568 5.955 16.811 3.625 16 3c-.813.625-3.57 2.955-5.04 6.64-1.665 4.175-1.17 8.668 1.47 13.36m-1.875.731q-2.018-3.67-2.45-7.21L6 19.044 7.544 26l.023-.016zM26 19.045l-2.103-2.525q-.428 3.535-2.445 7.211l2.98 2.25.023.017z"/></svg>