<svg xmlns="http://www.w3.org/2000/svg" width="32" height="32"  ><path fill="currentColor" d="M12.972 23.242C12.924 23.436 11.705 28 5.001 28a1 1 0 0 1-1-1c0-6.704 4.564-7.923 4.757-7.971a1 1 0 0 1 .485 1.94c-.112.032-2.802.818-3.195 4.983 4.166-.392 4.953-3.077 4.986-3.202a1 1 0 1 1 1.938.5zm11.625-8.425-.596.597v7.29a2 2 0 0 1-.585 1.42l-4.29 4.288a1.99 1.99 0 0 1-2.05.484 1.99 1.99 0 0 1-1.348-1.615l-.67-4.811-5.527-5.526-4.809-.672a2 2 0 0 1-1.134-3.397l4.288-4.29A2 2 0 0 1 9.296 8h7.291l.596-.596c3.335-3.334 7.354-3.478 8.927-3.384a2 2 0 0 1 1.875 1.875c.091 1.569-.053 5.587-3.386 8.922zm-19.596-.525 4.644.648L14.587 10H9.296zM11.416 16l4.585 4.585 7.181-7.181a9.56 9.56 0 0 0 2.803-7.395 9.58 9.58 0 0 0-7.389 2.808zm10.585 1.414-4.941 4.94.65 4.646L22 22.705z"/></svg>