<svg fill="none" xmlns="http://www.w3.org/2000/svg" viewBox="0 0 20 20"><path d="M10.2 1.7h-.4a2 2 0 0 0-1.7 1.6v.2a2 2 0 0 1-.8 1.4l-.3.2a2 2 0 0 1-1.7 0h-.1a2 2 0 0 0-2.3.6l-.2.3a2 2 0 0 0 .6 2.3h.1a2 2 0 0 1 .9 1.5v.4a2 2 0 0 1-.9 1.5h0a2 2 0 0 0-.7 2.3l.2.3a2 2 0 0 0 2.3.6h0a2 2 0 0 1 1.8 0l.3.2a2 2 0 0 1 .8 1.4v.2a2 2 0 0 0 1.7 1.6h.4a2 2 0 0 0 1.6-1.6v-.2a2 2 0 0 1 .9-1.4l.3-.2a2 2 0 0 1 1.7 0h.1a2 2 0 0 0 2.3-.6l.2-.3a2 2 0 0 0-.6-2.3h-.1a2 2 0 0 1-.9-1.5v-.4a2 2 0 0 1 .9-1.5h0a2 2 0 0 0 .7-2.3l-.2-.3a2 2 0 0 0-2.3-.6h0a2 2 0 0 1-1.8 0l-.3-.2a2 2 0 0 1-.9-1.4v-.2a2 2 0 0 0-1.6-1.6" stroke="#000" stroke-width="1.7" stroke-linecap="round" stroke-linejoin="round"/><path d="M10 12.5a2.5 2.5 0 1 0 0-5 2.5 2.5 0 0 0 0 5" stroke="#000" stroke-width="1.7" stroke-linecap="round" stroke-linejoin="round"/></svg>