<svg xmlns="http://www.w3.org/2000/svg" width="32" height="32"  ><path fill="currentColor" d="M25 6h-2.586l-1.707-1.707a1 1 0 0 0-.7-.293H12a1 1 0 0 0-.707.293L9.586 6H7a2 2 0 0 0-2 2v19a2 2 0 0 0 2 2h18a2 2 0 0 0 2-2V8a2 2 0 0 0-2-2m-4.845.57.845.844V14l-3.679-3.18zM11 7.414l.845-.844 2.834 4.25L11 14zM15 27H7V8h2v6a1.98 1.98 0 0 0 1.151 1.811 1.986 1.986 0 0 0 2.138-.29L15 13.185zM13.875 6h4.262L16 9.198zM25 27h-8V13.185l2.706 2.338.014.012a1.99 1.99 0 0 0 2.134.272A1.98 1.98 0 0 0 23 14V8h2z"/></svg>