<svg xmlns="http://www.w3.org/2000/svg" width="32" height="32"  ><path fill="currentColor" d="M29.922 8.762a1.645 1.645 0 0 0-1.434-1.137l-4.652-.394L22.02 3a1.655 1.655 0 0 0-3.04 0l-1.814 4.232-4.654.393a1.641 1.641 0 0 0-.936 2.882l3.52 3-1.054 4.467a1.64 1.64 0 0 0 .625 1.697 1.66 1.66 0 0 0 1.829.088l4-2.375 4 2.375a1.656 1.656 0 0 0 2.397-.842c.111-.302.13-.63.057-.943l-1.054-4.467 3.519-3a1.63 1.63 0 0 0 .506-1.745m-5.483 3.375a1.63 1.63 0 0 0-.532 1.625l.914 3.875-3.473-2.063a1.66 1.66 0 0 0-1.695 0l-3.472 2.05.913-3.874a1.63 1.63 0 0 0-.53-1.625L13.53 9.547l4.01-.34a1.65 1.65 0 0 0 1.376-.992L20.5 4.53l1.58 3.685a1.65 1.65 0 0 0 1.375.992l4.01.34zm-13.73 3.57-7 7a1 1 0 1 1-1.416-1.415l7-7a1 1 0 0 1 1.415 1.415m2 7-7 7a1.001 1.001 0 0 1-1.416-1.415l7-7a1 1 0 0 1 1.415 1.415m9-1.415a1 1 0 0 1 0 1.415l-7 7a1.003 1.003 0 0 1-1.416 0 1 1 0 0 1 0-1.415l7-7a1 1 0 0 1 1.415 0"/></svg>