<svg xmlns="http://www.w3.org/2000/svg" width="32" height="32"  ><path fill="currentColor" d="m25.152 16 3.724-6.5A1 1 0 0 0 28 8h-7.419l-3.706-6.5a1 1 0 0 0-1.738 0L11.417 8H4.001a1 1 0 0 0-.869 1.5L6.847 16l-3.715 6.5a1 1 0 0 0 .875 1.5h7.41l3.715 6.5a1 1 0 0 0 1.737 0l3.713-6.5h7.419a1 1 0 0 0 .875-1.5zm1.125-6-2.276 3.985L21.724 10zm-3.428 6-3.427 6h-6.844l-3.427-6 3.427-6h6.844zM16.002 4.015 18.278 8h-4.556zM5.723 10h4.552L8 13.985zm0 11.99 2.278-3.975L10.275 22zm10.278 5.995L13.722 24h4.556zM21.724 22l2.277-3.985L26.277 22z"/></svg>