<svg xmlns="http://www.w3.org/2000/svg" width="32" height="32"  ><path fill="currentColor" d="M29.9 12.161a2 2 0 0 0-1.726-1.375l-7.424-.64-2.91-6.92a1.993 1.993 0 0 0-3.68 0l-2.9 6.92-7.433.644a2 2 0 0 0-1.14 3.507l5.64 4.928-1.69 7.317a2 2 0 0 0 2.98 2.168l6.375-3.875 6.388 3.875a2 2 0 0 0 2.98-2.168l-1.688-7.325 5.637-4.92a2 2 0 0 0 .591-2.136m-1.902.625-5.638 4.92a2 2 0 0 0-.635 1.964L23.42 27l-6.384-3.875a1.99 1.99 0 0 0-2.067 0L8.593 27l1.682-7.325a2 2 0 0 0-.635-1.964L4 12.794v-.012l7.43-.642a2 2 0 0 0 1.67-1.219L16 4.01l2.9 6.911a2 2 0 0 0 1.67 1.219l7.43.642v.009z"/></svg>