<svg xmlns="http://www.w3.org/2000/svg" width="32" height="32"  ><path fill="currentColor" d="m29.313 14.298-.654.577a1 1 0 1 1-1.315-1.5l.653-.571v-.009l-1.083-.094a1.006 1.006 0 0 1-.806-1.461 1 1 0 0 1 .977-.539l1.087.094a2 2 0 0 1 1.14 3.509zm-7.588 5.375.357 1.551a1 1 0 0 0 1.95-.45l-.357-1.559.982-.857a1 1 0 1 0-1.314-1.508l-.983.859a2 2 0 0 0-.635 1.966zM17 6.394v16.708l.034.018 1.485.903a1 1 0 0 1-1.038 1.71L16 24.83l-6.375 3.875a2 2 0 0 1-2.98-2.167l1.681-7.313-5.638-4.927a2 2 0 0 1 1.138-3.509l7.433-.643 2.901-6.92a1.994 1.994 0 0 1 3.68 0l2.91 6.92 1.343.117a1.004 1.004 0 0 1-.173 2l-1.345-.117a2 2 0 0 1-1.669-1.218zm-2.034 16.731.034-.018V6.393l-1.9 4.528a2 2 0 0 1-1.669 1.218L4 12.781v.013l5.641 4.918a2 2 0 0 1 .634 1.963l-1.69 7.318zm9.989 1.657a.998.998 0 0 0-1.556-.589 1 1 0 0 0-.393 1.04L23.42 27l-1.399-.85a1 1 0 0 0-1.326 1.446 1 1 0 0 0 .287.264l1.404.853a2 2 0 0 0 2.98-2.168z"/></svg>