<svg xmlns="http://www.w3.org/2000/svg" width="32" height="32"  ><path fill="currentColor" d="M8.5 19a4.5 4.5 0 1 0 0 9 4.5 4.5 0 0 0 0-9m0 7a2.5 2.5 0 1 1 0-5 2.5 2.5 0 0 1 0 5M4.294 13.293 6.087 11.5 4.293 9.707a1 1 0 1 1 1.415-1.415l1.793 1.794 1.792-1.793a1 1 0 0 1 1.415 1.415L8.914 11.5l1.794 1.793a1 1 0 0 1-1.415 1.415l-1.792-1.794-1.793 1.793a1 1 0 0 1-1.415-1.415m23.415 12a1 1 0 0 1-.324 1.631 1 1 0 0 1-1.09-.216L24.5 24.914l-1.793 1.793a1.001 1.001 0 0 1-1.415-1.415l1.794-1.792-1.794-1.793a1 1 0 1 1 1.415-1.415l1.793 1.794 1.792-1.793a1 1 0 1 1 1.415 1.415L25.914 23.5zm-5.649-11.19c-.772 2.792-3.165 5.205-5.816 5.867q-.123.03-.25.03a1 1 0 0 1-.241-1.97c1.954-.489 3.794-2.364 4.375-4.46.399-1.437.402-3.625-1.839-5.863l-.287-.293V10a1 1 0 0 1-2 0V5a1 1 0 0 1 1-1h5a1 1 0 0 1 0 2h-2.587l.294.293c2.28 2.28 3.115 5.055 2.351 7.81"/></svg>