<svg xmlns="http://www.w3.org/2000/svg" width="32" height="32"  ><path fill="currentColor" d="M10 22.5a1.5 1.5 0 1 1-3 0 1.5 1.5 0 0 1 3 0m19-2.976V26a2 2 0 0 1-2 2H8.5q-.5 0-.993-.085a5.5 5.5 0 0 1-4.429-6.369l3.125-17.89A1.993 1.993 0 0 1 8.512 2.03l6.842 1.22a2 2 0 0 1 1.616 2.315l-1.51 8.625 8.476-3.065a2 2 0 0 1 2.556 1.19l2.383 6.521c.076.222.118.454.125.688m-17.126 3.585L15 5.218 8.182 4 5.057 21.888a3.5 3.5 0 0 0 2.805 4.058 3.41 3.41 0 0 0 2.57-.57 3.48 3.48 0 0 0 1.442-2.267m1.723 1.266L27 19.514 24.614 13l-9.552 3.463-1.223 6.99a5.6 5.6 0 0 1-.242.922M27 21.64 14.967 26H27z"/></svg>