<svg xmlns="http://www.w3.org/2000/svg" width="32" height="32"  ><path fill="currentColor" d="m29.708 8.293-6-6a1.003 1.003 0 0 0-1.632.324 1 1 0 0 0 .217 1.09L24.587 6 21 9.586l-4.293-4.293a1 1 0 0 0-1.415 1.415l.794.792L5.587 18A1.98 1.98 0 0 0 5 19.414v6.172l-2.708 2.707a1 1 0 1 0 1.415 1.415L6.414 27h6.173A1.98 1.98 0 0 0 14 26.414l10.5-10.5.792.794a1 1 0 0 0 1.415-1.415L22.414 11l3.587-3.586 2.292 2.294a1 1 0 1 0 1.415-1.415M12.587 25H7v-5.586l2.25-2.25 2.542 2.544a1 1 0 0 0 1.415-1.415l-2.544-2.543 1.587-1.586 2.542 2.544a1 1 0 0 0 1.415-1.415l-2.544-2.543 3.837-3.836 5.586 5.586z"/></svg>