<svg xmlns="http://www.w3.org/2000/svg" width="32" height="32"  ><path fill="currentColor" d="M25.196 6.808a13 13 0 1 0 0 18.385 12.925 12.925 0 0 0 0-18.385M8.22 8.22a10.95 10.95 0 0 1 6.707-3.163 10.9 10.9 0 0 1-3.176 6.7 10.93 10.93 0 0 1-6.702 3.168 10.95 10.95 0 0 1 3.17-6.705M5.04 16.935a12.9 12.9 0 0 0 8.125-3.764 12.9 12.9 0 0 0 3.767-8.125 10.97 10.97 0 0 1 10.022 10.018A13 13 0 0 0 15.06 26.95 10.97 10.97 0 0 1 5.038 16.934zm18.74 6.844a10.96 10.96 0 0 1-6.707 3.163 11 11 0 0 1 9.875-9.868 10.95 10.95 0 0 1-3.168 6.705"/></svg>