<svg xmlns="http://www.w3.org/2000/svg" width="32" height="32"  ><path fill="currentColor" d="m31.708 11.292-5-5a1 1 0 0 0-1.415 0l-4.292 4.294-4.293-4.294a1 1 0 0 0-1.415 0l-4.292 4.294-4.293-4.294a1 1 0 0 0-1.415 0l-5 5a1 1 0 0 0 0 1.415l5 5a1 1 0 0 0 1.415 0l4.293-4.293L14.587 17l-4.294 4.292a1 1 0 0 0 0 1.415l5 5a1 1 0 0 0 1.415 0l5-5a1 1 0 0 0 0-1.415L17.415 17 21 13.414l4.292 4.293a1 1 0 0 0 1.415 0l5-5a1 1 0 0 0 0-1.415M6.001 15.586 2.415 12 6 8.414 9.587 12zm10 10L12.414 22l3.587-3.586L19.587 22zm0-10L12.414 12l3.587-3.586L19.587 12zm10 0L22.414 12l3.587-3.586L29.587 12z"/></svg>