<svg xmlns="http://www.w3.org/2000/svg" width="32" height="32"  ><path fill="currentColor" d="M30.925 8.618A1 1 0 0 0 30 8h-3.804a6.08 6.08 0 0 0-5.183-3 5.86 5.86 0 0 0-4.22 1.713A5.99 5.99 0 0 0 15.002 11v.761C9.968 10.434 5.852 6.34 5.808 6.296a1 1 0 0 0-1.706.615c-.539 5.974 1.196 9.972 2.75 12.273a13.9 13.9 0 0 0 2.735 3.025C7.683 24.4 4.686 25.55 4.653 25.564a1 1 0 0 0-.48 1.491c.093.14.468.631 1.384 1.09 1.133.567 2.629.855 4.444.855 8.834 0 16.215-6.802 16.969-15.555l3.739-3.737a1 1 0 0 0 .216-1.09M25.3 12.294a1 1 0 0 0-.29.642C24.5 20.823 17.91 27 10 27c-1.32 0-2.25-.175-2.903-.385 1.44-.781 3.446-2.125 4.736-4.06a1 1 0 0 0-.333-1.42c-.059-.034-5.489-3.293-5.5-12 2 1.625 5.656 4.146 9.834 4.849A1 1 0 0 0 17 13v-2a4 4 0 0 1 1.2-2.865A3.87 3.87 0 0 1 20.988 7c1.583.02 3.062.985 3.68 2.401a1 1 0 0 0 .917.599h2z"/></svg>