<svg xmlns="http://www.w3.org/2000/svg" width="32" height="32"  ><path fill="currentColor" d="M21.828 10.171a10 10 0 1 0-11.657 11.657 10 10 0 1 0 11.657-11.657M28 20c0 .19-.008.375-.022.564l-6.25-6.25a10 10 0 0 0 .272-2.064A8.014 8.014 0 0 1 28 20M5.683 7.099l6.578 6.576a10 10 0 0 0-1.242 1.93l-6.482-6.48a8 8 0 0 1 1.146-2.026m3.441-2.562 6.483 6.483a10 10 0 0 0-1.93 1.241L7.098 5.684a8 8 0 0 1 2.026-1.147m7.683 13.854-3.196-3.196c.452-.6.986-1.134 1.586-1.587l3.196 3.197a8 8 0 0 1-1.589 1.586zM19.413 15 17 12.586A7.9 7.9 0 0 1 20 12a7.9 7.9 0 0 1-.586 3m-6.827 2 2.413 2.413A7.9 7.9 0 0 1 12 20c0-1.029.199-2.048.587-3m5.738 2.738 6.577 6.578a8 8 0 0 1-2.027 1.146l-6.482-6.482a10 10 0 0 0 1.932-1.242m1.414-1.413c.486-.594.902-1.242 1.241-1.93l6.483 6.48a8 8 0 0 1-1.146 2.023zm.011-8.319c-.694.017-1.385.106-2.06.266l-6.25-6.25q.276-.02.56-.022a8.014 8.014 0 0 1 7.75 6.006M4 12c0-.19.009-.375.023-.564l6.25 6.25a10 10 0 0 0-.266 2.064A8.014 8.014 0 0 1 3.999 12m8.25 10a10 10 0 0 0 2.062-.267l6.25 6.25a8 8 0 0 1-.564.023A8.01 8.01 0 0 1 12.249 22"/></svg>