<svg xmlns="http://www.w3.org/2000/svg" width="32" height="32"  ><path fill="currentColor" d="M14.657 19.74a7.499 7.499 0 1 0-8.313 0 11.98 11.98 0 0 0-5.902 4.714 1 1 0 1 0 1.675 1.092 10 10 0 0 1 16.767 0 1 1 0 0 0 1.675-1.092 11.98 11.98 0 0 0-5.902-4.714M5 13.5A5.5 5.5 0 1 1 16 13.5a5.5 5.5 0 0 1-11 0m26.267 12.338a1 1 0 0 1-1.384-.292A9.98 9.98 0 0 0 21.501 21a1 1 0 1 1 0-2 5.5 5.5 0 1 0-2.043-10.609 1 1 0 1 1-.742-1.856 7.5 7.5 0 0 1 6.94 13.205 11.98 11.98 0 0 1 5.903 4.714 1 1 0 0 1-.29 1.384"/></svg>