<svg xmlns="http://www.w3.org/2000/svg" width="32" height="32"  ><path fill="currentColor" d="M18 19.71a8.5 8.5 0 1 0-8.987 0c-2.582.845-4.904 2.424-6.772 4.646a.999.999 0 1 0 1.53 1.288C6.281 22.649 9.74 21 13.5 21s7.219 1.649 9.734 4.644a1 1 0 1 0 1.532-1.288c-1.868-2.222-4.191-3.8-6.766-4.646M7 12.5a6.5 6.5 0 1 1 6.5 6.5A6.507 6.507 0 0 1 7 12.5m23.531 5.384-.582-.336a3 3 0 0 0 0-1.095l.582-.337a1 1 0 0 0-1-1.732l-.583.337c-.28-.24-.601-.425-.948-.548V13.5a1 1 0 0 0-2 0v.673c-.347.123-.668.309-.948.548l-.583-.337a1 1 0 1 0-1 1.732l.582.337a3 3 0 0 0 0 1.095l-.582.336a1 1 0 1 0 1 1.732l.583-.337c.28.24.601.426.948.549v.672a1 1 0 0 0 2 0v-.672c.347-.123.668-.31.948-.55l.583.338a1 1 0 1 0 1-1.732M26 17a1 1 0 1 1 2 0 1 1 0 0 1-2 0"/></svg>