<svg xmlns="http://www.w3.org/2000/svg" width="32" height="32"  ><path fill="currentColor" d="M4.29 9.71a1 1 0 0 1 0-1.418C4.388 8.2 6.638 6 11 6c2.302 0 4.03 1.151 5.554 2.168C17.967 9.11 19.302 10 21 10a9 9 0 0 0 3.97-.854 5.6 5.6 0 0 0 1.328-.859 1 1 0 1 1 1.409 1.42C27.612 9.801 25.362 12 20.999 12c-2.302 0-4.03-1.151-5.555-2.168C14.032 8.89 12.697 8 11 8a9 9 0 0 0-3.968.854 5.6 5.6 0 0 0-1.33.859 1 1 0 0 1-1.41-.003m22.007 5.577c-.4.348-.848.637-1.329.86A9 9 0 0 1 21 17c-1.697 0-3.032-.89-4.445-1.832C15.03 14.15 13.302 13 11 13c-4.362 0-6.612 2.199-6.706 2.293a1 1 0 0 0 1.409 1.42c.4-.348.847-.637 1.329-.86A9 9 0 0 1 10.999 15c1.698 0 3.033.89 4.445 1.832C16.97 17.85 18.694 19 21 19c4.363 0 6.613-2.199 6.707-2.293a.999.999 0 1 0-1.41-1.42m0 7c-.4.348-.848.637-1.329.86A9 9 0 0 1 21 24c-1.697 0-3.032-.89-4.445-1.832C15.03 21.15 13.302 20 11 20c-4.362 0-6.612 2.199-6.706 2.293a1 1 0 0 0 1.409 1.42c.4-.348.847-.637 1.329-.86A9 9 0 0 1 10.999 22c1.698 0 3.033.89 4.445 1.832C16.97 24.85 18.694 26 21 26c4.363 0 6.613-2.199 6.707-2.293a1 1 0 0 0-1.41-1.42"/></svg>