<svg xmlns="http://www.w3.org/2000/svg" width="32" height="32"  ><path fill="currentColor" d="M28.708 12.293a1 1 0 0 1-1.415 1.415L25 11.414l-2.292 2.294a1 1 0 0 1-1.415-1.415L23.587 10l-2.294-2.292a1.001 1.001 0 0 1 1.415-1.415l2.293 2.293 2.292-2.293a1 1 0 1 1 1.415 1.415L26.414 10zM16.001 24a1.5 1.5 0 1 0 0 3 1.5 1.5 0 0 0 0-3m5.588-4.184a9.51 9.51 0 0 0-11.177 0 1 1 0 1 0 1.177 1.618 7.5 7.5 0 0 1 8.823 0 1 1 0 1 0 1.177-1.618M17.904 8.091a1 1 0 1 0 .193-1.99 21.544 21.544 0 0 0-15.731 4.774 1 1 0 1 0 1.27 1.546 19.53 19.53 0 0 1 14.268-4.33m-.04 6.034a1 1 0 0 0 .273-1.981A16 16 0 0 0 16 12a15.34 15.34 0 0 0-9.625 3.346 1 1 0 0 0 1.25 1.563A13.36 13.36 0 0 1 16 14q.937-.002 1.864.125"/></svg>