<svg xmlns="http://www.w3.org/2000/svg" width="32" height="32"  ><path fill="currentColor" d="M28.345 8.625a1 1 0 0 0-1.605-.36l-5.038 4.649-2.154-.463-.462-2.154 4.649-5.037a1 1 0 0 0-.36-1.605A9 9 0 0 0 11 12a9 9 0 0 0 .75 3.617l-7.526 6.508q-.03.023-.054.049a4 4 0 1 0 5.706 5.605l6.506-7.53A9 9 0 0 0 29 12a8.95 8.95 0 0 0-.655-3.374M20 19a7 7 0 0 1-3.384-.875 1 1 0 0 0-1.24.221L8.389 26.44A2 2 0 0 1 5.56 23.61l8.086-6.986a1 1 0 0 0 .221-1.241 7 7 0 0 1 7.295-10.29l-3.9 4.227a1 1 0 0 0-.242.888l.707 3.29a1 1 0 0 0 .768.768l3.294.708a1 1 0 0 0 .887-.243l4.227-3.9A7.008 7.008 0 0 1 20 19"/></svg>